<?xml version="1.0" encoding="UTF-8" standalone="no"?>
<svg
   version="1.1"
   id="Calque_1"
   x="0"
   y="0"
   viewBox="0 0 300 300"
   style="enable-background:new 0 0 300 300"
   xml:space="preserve"
   sodipodi:docname="openebs.svg"
   inkscape:version="1.1.2 (b8e25be8, 2022-02-05)"
   xmlns:inkscape="http://www.inkscape.org/namespaces/inkscape"
   xmlns:sodipodi="http://sodipodi.sourceforge.net/DTD/sodipodi-0.dtd"
   xmlns="http://www.w3.org/2000/svg"
   xmlns:svg="http://www.w3.org/2000/svg"><defs
     id="defs134"><style
       id="style2862">.cls-4{fill:#ae7f70}.cls-5{fill:#060707}.cls-7{fill:#348ebf}.cls-8{fill:#090a0a}.cls-9{fill:#4f3f3e}.cls-10{fill:#2b2323}</style></defs><sodipodi:namedview
     id="namedview132"
     pagecolor="#ffffff"
     bordercolor="#666666"
     borderopacity="1.0"
     inkscape:pageshadow="2"
     inkscape:pageopacity="0.0"
     inkscape:pagecheckerboard="0"
     showgrid="false"
     inkscape:zoom="2.38"
     inkscape:cx="149.78992"
     inkscape:cy="150"
     inkscape:window-width="1296"
     inkscape:window-height="936"
     inkscape:window-x="0"
     inkscape:window-y="25"
     inkscape:window-maximized="0"
     inkscape:current-layer="Calque_1" /><style
     id="style69">.st1{fill:#f6d2a2}.st2{fill:#c6b198}.st3{fill:#37abc8}.st4{fill:none}.st5{fill:#077e91}.st6{fill:#fff}.st7{fill:#ef9325}.st8{fill:#e5e5e5}.st9{fill:#d2e261}.st10{fill:#9b9b9b}.st11{fill:#960000}.st12{fill:#595959}</style><g
     id="g3158"
     transform="translate(-21.04 -84.875) scale(.63926)"><g
       id="g3184" /><g
       id="g3194" /><g
       id="g3200" /><g
       id="g3208" /></g><g
     id="g3212"
     transform="translate(-21.04 -84.875) scale(.63926)" /><g
     id="g3220"
     transform="translate(-21.04 -84.875) scale(.63926)" /><g
     id="g3228"
     transform="translate(-21.04 -84.875) scale(.63926)" /><g
     id="g3238"
     transform="translate(-21.04 -84.875) scale(.63926)"><path
       id="path3240"
       style="stroke-width:0.63926"
       class="st9"
       transform="matrix(1.5643087,0,0,1.5643087,32.913056,132.7707)"
       d="m 66.335938,125.46484 c 0.266138,0.61937 1.192451,2.16899 2.0625,3.375 -0.304757,-0.72322 -0.508517,-1.19363 -0.933594,-2.23828 -0.110899,-0.15161 -0.21076,-0.28733 -0.304688,-0.41211 -0.278024,-0.2319 -0.553647,-0.47331 -0.824218,-0.72461 z" /></g><g
     id="g3248"
     transform="translate(-21.04 -84.875) scale(.63926)"><g
       id="g3250" /><g
       id="g3256" /></g><g
     id="g3268"
     transform="translate(-21.04 -84.875) scale(.63926)" /><g
     id="g2964"
     transform="matrix(0.50829531,0,0,0.50829531,60.889944,52.776455)"><path
       fill="none"
       d="m 52.62628,297.66378 a 6.20634,6.20634 0 0 0 -6.10724,-5.43555 q -7.02,0.004 -14.03991,8e-4 l -7e-5,0.0834 c -4.64642,0 -9.293,-0.0161 -13.93933,0.005 a 6.427,6.427 0 0 0 -6.64526,6.81818 c 0.25311,4.31286 0.16016,8.64575 0.22717,12.96985 0.07416,4.78485 0.11353,9.57092 0.25629,14.35382 a 6.0921,6.0921 0 0 0 5.547,6.22705 24.396,24.396 0 0 0 3.38153,0.0433 c 4.75317,0.002 9.50659,0.0277 14.25958,-0.007 3.89874,-0.0288 7.798,0.12237 11.69708,-0.1333 a 6.34015,6.34015 0 0 0 5.89093,-6.32654 c -0.198,-6.90936 -0.1933,-13.82422 -0.31707,-20.736 a 72.1735,72.1735 0 0 0 -0.2107,-7.86239 z M 254.545,308.75045 c 5.14435,-0.0217 10.28888,-0.0114 15.43329,-0.0114 v -0.0666 c 5.03772,0 10.0755,0.008 15.11322,-0.003 3.55475,-0.007 5.24256,-1.69427 5.36865,-5.23437 0.072,-2.02186 0.0385,-4.04035 -0.0153,-6.0597 a 4.13,4.13 0 0 0 -2.70593,-3.96039 8.31279,8.31279 0 0 0 -3.20733,-0.67193 c -9.89875,-0.019 -19.79749,-0.0171 -29.69617,-0.053 -0.99268,-0.004 -1.3017,0.38965 -1.29456,1.326 q 0.0521,6.86472 0.0313,13.73 c -0.002,0.7282 0.22215,1.00731 0.97284,1.00414 z M 96.35321,309.7123 c -1.3183,-2.59936 -3.65723,-3.29321 -6.30688,-3.30554 -5.9231,-0.0276 -11.84638,-0.012 -17.7696,-0.006 -1.24121,0.001 -1.393,0.16516 -1.39416,1.43072 q -0.0057,6.01191 -0.0014,12.02375 c 7e-5,4.11432 0.01551,8.22876 -0.01232,12.34289 -0.0059,0.87439 0.313,1.18628 1.1864,1.18323 6.4898,-0.0228 12.97986,0.006 19.46966,-0.0206 a 5.44563,5.44563 0 0 0 5.38715,-5.347 c 0.03107,-5.35315 0.0067,-10.70673 0.01111,-16.06012 a 4.88077,4.88077 0 0 0 -0.56995,-2.24136 z m 37.31628,-3.1325 q -7.28557,-0.0154 -14.57116,0.002 a 5.72029,5.72029 0 0 0 -5.81378,5.78217 c -0.0162,1.20538 0.0682,2.41663 -0.0239,3.61517 -0.0833,1.08289 0.39923,1.34772 1.35828,1.34186 3.89929,-0.0237 7.79889,-0.01 11.69836,-0.01 l 6e-5,-0.0554 c 1.34741,0 2.695,-0.006 4.0423,10e-4 q 3.82809,0.0214 7.65619,0.0555 c 1.31146,0.01 1.45093,-0.12665 1.45263,-1.44525 0.002,-1.20563 0.0275,-2.412 -0.005,-3.61664 a 5.64534,5.64534 0 0 0 -5.79346,-5.67053 z m 154.32551,8.91577 a 9.1014,9.1014 0 0 0 -1.99372,-0.26819 q -15.52689,-0.0688 -31.05389,-0.0973 c -1.24018,-0.003 -1.39264,0.16119 -1.39392,1.43262 q -0.008,7.49789 -6.1e-4,14.99578 c 10e-4,1.38758 0.11944,1.50611 1.52581,1.50733 q 7.6584,0.007 15.31678,0.002 c 3.97107,0 7.9425,0.036 11.9129,-0.0145 a 23.87091,23.87091 0 0 0 6.33545,-0.50464 3.59064,3.59064 0 0 0 3.01044,-3.81451 c 0.0366,-2.87055 0.0378,-5.7417 0.037,-8.61261 -6.9e-4,-2.75177 -0.99214,-3.99872 -3.69624,-4.62567 z m -87.03138,-227.3255 1.3e-4,-0.017 -0.007,1.8e-4 0.007,0.017 z"
       id="path2866" /><path
       fill="#fefefe"
       d="m 190.72052,187.917 a 22.93011,22.93011 0 0 0 4.15826,0.0559 53.25016,53.25016 0 0 0 5.79841,-0.36639 36.52687,36.52687 0 0 0 21.228,-11.28589 13.22288,13.22288 0 0 0 3.376,-13.04675 27.28667,27.28667 0 0 0 -13.257,-17.02869 11.61716,11.61716 0 0 0 -6.6062,-1.6 17.06147,17.06147 0 0 0 -10.85626,4.73761 37.19851,37.19851 0 0 0 -10.6128,18.03046 22.74165,22.74165 0 0 0 1.54944,16.28735 6.92874,6.92874 0 0 0 5.22215,4.21639 z m -1.41553,-23.196 a 12.90874,12.90874 0 0 1 11.32617,-3.55719 2.59336,2.59336 0 0 1 1.666,4.39392 c -0.37866,0.4671 -0.82806,0.87634 -1.21533,1.337 a 3.51008,3.51008 0 0 0 -0.24079,4.50317 3.99512,3.99512 0 0 0 4.42072,1.97321 12.75374,12.75374 0 0 0 2.411,-1.08149 c 2.30347,-1.13452 4.05163,-0.0472 4.07916,2.518 0.0649,6.04651 -5.63776,11.90521 -11.696,12.01337 -0.53186,0.009 -1.06409,0.001 -1.80182,0.001 -3.33209,-0.0637 -6.62427,-0.79853 -9.15039,-3.52552 a 12.86133,12.86133 0 0 1 -3.11664,-7.41882 c -0.51624,-4.17008 0.0482,-8.14012 3.31793,-11.15696 z m -38.12634,-19.00162 a 10.90486,10.90486 0 0 0 -5.62054,-1.27026 15.899,15.899 0 0 0 -8.14478,3.02869 28.55979,28.55979 0 0 0 -11.151,15.57373 12.39445,12.39445 0 0 0 -0.28388,6.39117 16.48775,16.48775 0 0 0 5.15888,8.36359 c 7.67218,7.38928 17.08453,10.22259 27.49261,10.32055 a 7.78252,7.78252 0 0 0 7.68311,-4.80474 20.44005,20.44005 0 0 0 2.11731,-9.10065 30.92281,30.92281 0 0 0 -1.51648,-9.17053 30.15138,30.15138 0 0 0 -15.73523,-19.33155 z m 10.62769,26.494 c 1.78747,-1.14954 3.41485,-0.48773 3.72949,1.65186 a 10.48218,10.48218 0 0 1 -2.4,8.52636 11.52818,11.52818 0 0 1 -9.54443,4.50238 c -2.31348,-0.18066 -4.54254,-0.11041 -6.63733,-1.133 a 13.2413,13.2413 0 0 1 -7.03009,-13.108 13.12027,13.12027 0 0 1 15.04773,-11.54107 2.88546,2.88546 0 0 1 2.35541,2.05066 2.44555,2.44555 0 0 1 -0.94385,2.72741 c -0.21173,0.18824 -0.40924,0.39338 -0.60492,0.59876 -1.57941,1.65784 -1.74036,3.49921 -0.45416,5.16327 1.5097,1.95325 3.35022,2.38287 5.41168,1.24939 0.37076,-0.20399 0.71359,-0.45857 1.07047,-0.68806 z m 36.55572,87.50082 a 37.64469,37.64469 0 0 1 -28.25561,4.75238 75.68813,75.68813 0 0 1 -20.12256,-8.06562 c -1.25428,-0.69012 -2.501,-1.39386 -3.81183,-2.12518 a 0.961,0.961 0 0 0 0.34112,0.7655 43.36664,43.36664 0 0 0 19.98407,14.23194 33.33818,33.33818 0 0 0 19.3003,1.1737 32.89855,32.89855 0 0 0 18.41,-12.02087 17.04987,17.04987 0 0 0 2.94891,-4.51734 1.16944,1.16944 0 0 0 -0.79364,0.37708 86.59521,86.59521 0 0 1 -8.00076,5.42841 z"
       id="path2868" /><path
       fill="#563a39"
       d="m 237.51367,90.48055 c 5.82385,-13.32708 10.94776,-26.89221 12.75757,-41.45471 a 59.37455,59.37455 0 0 0 -0.30469,-18.95215 28.121,28.121 0 0 0 -22.309,-22.5108 c -6.5238,-1.17127 -12.31836,0.41131 -17.0141,5.28033 a 39.45762,39.45762 0 0 0 -8.1502,12.96747 c -5.63556,14.118 -8.17322,28.92035 -9.57721,43.96155 -0.56311,6.033 -1.03437,12.07458 -1.54749,18.1123 h 6e-5 a 14.98718,14.98718 0 0 1 3.77057,-0.99878 c 0.26,-0.04547 0.635,-0.16394 0.78412,0.09827 0.13147,0.23126 -0.0504,0.54059 -0.20422,0.78668 a 15.17909,15.17909 0 0 0 -2.24329,5.23005 9.83318,9.83318 0 0 0 0.11725,4.30737 c 0.1897,0.73181 0.59381,0.96661 1.33972,0.623 a 6.49022,6.49022 0 0 0 3.29,-4.205 23.54955,23.54955 0 0 0 0.82184,-6.16162 c 0.0847,-1.15284 0.0153,-2.317 0.20239,-3.52558 q 0.85473,2.0571 1.70947,4.11432 l 0.007,-1.8e-4 c 0.0631,-2.75629 -0.20636,-5.49957 -0.32667,-8.24878 -0.0945,-2.1601 0.0296,-4.315 0.11255,-6.47363 0.40162,-10.444 1.48883,-20.79841 4.33124,-30.88654 1.84107,-6.53418 4.28839,-12.851 8.51605,-18.27081 2.29993,-2.94837 5.136,-5.36664 8.92572,-6.15045 4.93775,-1.02131 9.41681,0.38348 13.37513,3.29443 3.71283,2.73047 5.53289,6.735 6.59423,11.09314 a 35.26676,35.26676 0 0 1 0.282,13.57818 123.2355,123.2355 0 0 1 -8.37018,30.03412 141.24477,141.24477 0 0 1 -17.2995,30.63782 44.51837,44.51837 0 0 1 -6.63269,7.161 c -1.744,1.48474 -2.76215,1.36267 -3.89044,-0.61792 a 37.50707,37.50707 0 0 1 -3.66217,-9.80774 c -0.0579,-0.23718 -0.16,-0.4635 -0.24164,-0.69488 -0.41107,0.85412 -0.80725,1.71594 -1.23987,2.559 a 0.95063,0.95063 0 0 0 0.0477,1.06817 c 1.91284,3.09845 2.0708,6.48945 1.71368,10.00116 a 37.005,37.005 0 0 1 -1.77429,7.69184 h -6e-5 c -0.0197,0.1961 -0.036,0.46863 -0.2619,0.45727 -0.278,-0.014 -0.12189,-0.29974 -0.155,-0.46753 -0.49622,-3.20092 -0.69135,-6.48895 -2.71393,-9.244 a 2.24764,2.24764 0 0 0 -1.33722,-1.06788 c 0.44367,7.14679 -2.065,13.49158 -5.04016,19.71119 a 30.59544,30.59544 0 0 0 0.49445,-4.59675 18.65212,18.65212 0 0 0 -1.233,-5.98931 30.16261,30.16261 0 0 0 -8.078,-11.43653 c -0.0422,-0.0387 -0.127,-0.0311 -0.31573,-0.0717 1.5404,8.20819 -1.57245,15.001 -6.24945,21.37078 a 0.55169,0.55169 0 0 1 -0.23706,-0.6651 c 0.6242,-4.44824 -0.89814,-8.50207 -2.30848,-12.57324 -0.3009,-0.86859 -0.732,-1.69262 -1.02215,-2.56408 -0.30145,-0.90558 -0.75537,-0.85193 -1.43341,-0.409 a 6.40033,6.40033 0 0 0 -2.33655,3.08868 31.43161,31.43161 0 0 0 -1.82861,8.34827 80.96451,80.96451 0 0 0 -0.46485,8.98682 c -0.0101,0.95245 -0.0167,1.90533 -0.0278,2.85852 -0.3479,-0.9162 -0.66852,-1.83625 -0.96869,-2.75916 a 54.0213,54.0213 0 0 1 -2.56482,-21.12323 20.30177,20.30177 0 0 0 -3.21112,12.02521 c -0.49408,-1.16034 -1.00976,-2.312 -1.47815,-3.48267 a 39.04477,39.04477 0 0 1 -2.52429,-9.38842 9.33417,9.33417 0 0 1 0.12421,-3.80085 1.11778,1.11778 0 0 0 -0.51148,-1.429 7.19468,7.19468 0 0 1 -2.48083,-2.845 31.92268,31.92268 0 0 1 -2.88458,-8.26673 l -1.3e-4,-1.2e-4 a 42.227,42.227 0 0 1 -4.60724,14.5719 c -1.11438,1.98376 -2.1206,2.05755 -3.88067,0.53039 -4.63025,-4.01757 -8.14618,-8.935 -11.42645,-14.04644 A 144.06542,144.06542 0 0 1 114.24249,65.92616 113.912,113.912 0 0 1 109.63336,46.14558 47.25844,47.25844 0 0 1 109.06604,38.75349 26.6335,26.6335 0 0 1 112.478,25.974 c 2.53955,-4.42493 6.56909,-6.84174 11.46356,-7.8623 6.81866,-1.42182 11.67834,1.79364 15.47436,6.97161 4.00769,5.4668 6.31244,11.76178 8.11921,18.23407 a 107.82041,107.82041 0 0 1 3.031,16.43634 c 0.56726,4.81452 0.92249,9.63654 1.10852,14.48328 0.11017,2.8703 0.0225,5.72388 -0.0328,8.585 q 1.14522,-3.00073 2.29058,-6.00146 c 0.16907,5.3739 0.33783,10.69385 2.03156,15.85907 a 71.25116,71.25116 0 0 1 3.94366,-12.4458 l 2.5e-4,6e-5 q 0.20727,-0.09422 0.41443,-0.18805 l 6e-5,-1.2e-4 c -0.009,-0.5304 0.008,-1.06262 -0.0301,-1.591 -0.56183,-7.81146 -1.19678,-15.615 -2.522,-23.34429 -1.40063,-8.16907 -2.883,-16.32062 -5.54181,-24.19959 A 52.33419,52.33419 0 0 0 143.329,14.11044 18.36983,18.36983 0 0 0 122.87191,8.05044 C 116.32458,10.10586 110.75,13.537 106.977,19.44265 c -4.1759,6.53619 -5.46741,13.86017 -5.39435,21.43457 a 88.16184,88.16184 0 0 0 2.89246,19.9361 c 2.63385,10.84417 6.7301,21.159 11.30487,31.30212 3.947,8.75116 8.41369,17.2345 13.14111,25.58472 0.85108,1.50329 0.726,2.06317 -0.43036,3.16516 a 46.58883,46.58883 0 0 0 -12.88122,21.037 c -1.80963,6.22387 -1.51416,12.541 -0.95209,18.88262 q 0.75549,8.52421 1.41821,17.05652 c 0.287,3.70862 0.33289,7.44214 0.76441,11.132 0.81152,6.93891 1.28949,13.90027 1.76654,20.86444 a 78.86214,78.86214 0 0 0 1.851,14.41986 c 1.63129,6.32386 4.17249,12.32227 6.61639,18.35321 1.11261,2.74561 2.306,5.4585 3.55591,8.40564 0.16712,-0.58117 0.26361,-0.91662 0.36,-1.252 a 86.55555,86.55555 0 0 1 2.579,-10.353 59.72534,59.72534 0 0 1 9.64838,-17.12573 c 4.43109,-5.55456 9.26825,-10.71081 15.24994,-14.65375 a 29.923,29.923 0 0 1 13.34082,-5.10766 29.36061,29.36061 0 0 1 9.78558,0.6466 c 7.18939,1.67518 13.3913,5.28711 19.10876,9.78681 a 68.032,68.032 0 0 1 19.2793,24.08136 c 0.52264,1.07605 0.952,2.19739 1.42468,3.29767 a 101.80039,101.80039 0 0 0 6.82312,-21.38941 c 1.23163,-6.86743 2.26917,-13.76965 3.39722,-20.65576 1.11078,-6.78052 2.25775,-13.55475 3.21014,-20.3609 q 1.57628,-11.26557 2.92347,-22.56 a 51.44843,51.44843 0 0 0 -0.12787,-15.982 c -1.60291,-8.33087 -5.24213,-15.44354 -12.07508,-20.71753 -1.40484,-1.08435 -1.514,-1.79724 -0.57879,-3.37274 a 224.70106,224.70106 0 0 0 12.53512,-24.81802 z m -15.60846,85.84 a 36.52687,36.52687 0 0 1 -21.228,11.28589 53.25016,53.25016 0 0 1 -5.79841,0.36639 22.93011,22.93011 0 0 1 -4.15826,-0.0559 6.92874,6.92874 0 0 1 -5.22211,-4.21637 22.74165,22.74165 0 0 1 -1.54944,-16.28735 37.19851,37.19851 0 0 1 10.6128,-18.03046 17.06147,17.06147 0 0 1 10.85626,-4.73761 11.61716,11.61716 0 0 1 6.6062,1.6 27.28667,27.28667 0 0 1 13.257,17.02869 13.22288,13.22288 0 0 1 -3.37604,13.04676 z M 166.91388,165.0509 a 30.92281,30.92281 0 0 1 1.51648,9.17053 20.44005,20.44005 0 0 1 -2.11731,9.10065 7.78252,7.78252 0 0 1 -7.68311,4.80474 c -10.40808,-0.098 -19.82043,-2.93127 -27.49261,-10.32055 a 16.48775,16.48775 0 0 1 -5.15888,-8.36359 12.39445,12.39445 0 0 1 0.28388,-6.39117 28.55979,28.55979 0 0 1 11.151,-15.57373 15.899,15.899 0 0 1 8.14478,-3.02869 10.90486,10.90486 0 0 1 5.62054,1.27026 30.15138,30.15138 0 0 1 15.73523,19.33158 z"
       id="path2870" /><path
       d="m 221.40643,240.337 v -6e-5 c -0.527,-0.0295 -0.54394,-0.50849 -0.67389,-0.83271 a 62.61989,62.61989 0 0 0 -10.01147,-16.359 65.14513,65.14513 0 0 0 -17.26447,-14.81739 38.37616,38.37616 0 0 0 -15.84491,-5.52368 26.30852,26.30852 0 0 0 -13.51013,2.10742 43.92217,43.92217 0 0 0 -12.1463,8.28668 78.17166,78.17166 0 0 0 -11.85626,13.86725 52.11069,52.11069 0 0 0 -8.127,19.39881 c -0.20849,1.12005 -0.19451,2.33929 -0.98205,3.30029 a 15.43559,15.43559 0 0 1 0.37482,3.62708 22.26859,22.26859 0 0 0 5.69152,13.22351 28.8777,28.8777 0 0 0 12.72559,7.59253 c 8.65454,2.79925 17.64459,3.3095 26.62781,3.736 a 97.56581,97.56581 0 0 0 11.57049,-0.26471 40.61326,40.61326 0 0 0 23.88239,-9.46008 30.89322,30.89322 0 0 0 9.2337,-12.15516 c 2.07173,-5.19778 1.79631,-10.4531 0.31016,-15.72678 z m -17.19891,18.089 a 32.89855,32.89855 0 0 1 -18.41,12.02087 33.33818,33.33818 0 0 1 -19.3003,-1.1737 43.36664,43.36664 0 0 1 -19.98407,-14.23194 0.961,0.961 0 0 1 -0.34112,-0.7655 c 1.31085,0.73132 2.55755,1.43506 3.81183,2.12518 a 75.68813,75.68813 0 0 0 20.12256,8.06562 37.64469,37.64469 0 0 0 28.25561,-4.75238 86.59521,86.59521 0 0 0 8.00073,-5.42841 1.16944,1.16944 0 0 1 0.79364,-0.37708 17.04987,17.04987 0 0 1 -2.94888,4.51734 z m -11.92273,-24.74414 c 0.25543,-4.79242 3.4295,-7.89984 7.89728,-7.85163 3.1983,0.0345 7.7445,3.06665 8.91907,6.03717 a 7.484,7.484 0 0 1 -0.13276,4.496 12.84731,12.84731 0 0 1 -4.36676,7.00579 47.30487,47.30487 0 0 1 -4.59308,3.44251 72.54333,72.54333 0 0 1 -12.12933,6.32269 2.46353,2.46353 0 0 1 -2.06274,0.008 1.63779,1.63779 0 0 1 -0.78333,-2.668 c 1.21124,-1.8316 2.49164,-3.61938 3.65222,-5.48217 0.0974,-0.15638 0.18287,-0.31659 0.27649,-0.47419 a 23.35242,23.35242 0 0 0 3.32294,-10.83581 z m -42.79718,-5.27783 a 9.15582,9.15582 0 0 1 6.34113,-2.57526 7.65831,7.65831 0 0 1 7.67443,7.53375 24.43758,24.43758 0 0 0 3.00586,10.822 22.64011,22.64011 0 0 0 2.42859,3.50635 c 0.65863,0.78046 0.99182,1.88355 1.662,2.74335 0.42773,0.54877 0.86816,1.243 0.30127,1.93548 a 2.284,2.284 0 0 1 -2.262,0.89588 8.47692,8.47692 0 0 1 -2.02808,-0.618 86.1609,86.1609 0 0 1 -11.79309,-6.451 c -0.7959,-0.54865 -1.58142,-1.11512 -2.34137,-1.72553 a 20.63739,20.63739 0 0 1 -4.41956,-4.71 8.54162,8.54162 0 0 1 1.43082,-11.35697 z"
       class="cls-4"
       id="path2872" /><path
       d="m 200.70245,212.95791 c -5.71746,-4.4997 -11.91937,-8.11163 -19.10876,-9.78681 a 29.36061,29.36061 0 0 0 -9.78558,-0.6466 29.923,29.923 0 0 0 -13.34082,5.10766 c -5.98169,3.94294 -10.81885,9.09919 -15.24994,14.65375 a 59.72534,59.72534 0 0 0 -9.64838,17.12573 86.55555,86.55555 0 0 0 -2.579,10.353 c 0.78754,-0.961 0.77356,-2.18024 0.98205,-3.30029 a 52.11069,52.11069 0 0 1 8.127,-19.39881 78.17166,78.17166 0 0 1 11.85626,-13.86725 43.92217,43.92217 0 0 1 12.1463,-8.28668 26.30852,26.30852 0 0 1 13.51013,-2.10742 38.37616,38.37616 0 0 1 15.84491,5.52368 65.14513,65.14513 0 0 1 17.26447,14.81739 62.61989,62.61989 0 0 1 10.01147,16.359 c 0.13,0.32422 0.14685,0.80323 0.67389,0.83271 -0.47265,-1.10028 -0.902,-2.22162 -1.42468,-3.29767 a 68.032,68.032 0 0 0 -19.27932,-24.08139 z"
       class="cls-4"
       id="path2874" /><path
       d="m 160.07825,80.89223 a 0.64862,0.64862 0 0 0 0.0288,-0.388 5.6971,5.6971 0 0 0 -0.0221,0.12214 60.68485,60.68485 0 0 0 -3.51788,11.23022 c -0.071,0.38428 -0.14112,0.90338 -0.56494,0.92725 -0.50153,0.02826 -0.6001,-0.533 -0.71,-0.92322 a 36.10492,36.10492 0 0 1 -1.18628,-6.79028 47.37741,47.37741 0 0 1 -0.1889,-7.389 c -0.58874,1.54333 -1.14862,2.9552 -1.65662,4.38678 -0.11413,0.32165 -0.18548,0.70257 -0.61389,0.79242 L 151.635,82.848 a 39.90206,39.90206 0 0 0 -1.54688,12.98218 c 0.0615,0.98212 0.18848,1.96015 0.286,2.94025 0.51618,0.116 0.46235,0.61023 0.53754,0.96918 a 29.22284,29.22284 0 0 0 2.19336,6.31628 8.99778,8.99778 0 0 0 2.74762,3.59009 1.39637,1.39637 0 0 1 0.71674,1.43292 c -0.59015,3.09772 0.14123,6.0611 0.91412,9.02087 a 54.3769,54.3769 0 0 0 2.46832,6.79371 17.40127,17.40127 0 0 1 0.86389,-6.27076 19.96438,19.96438 0 0 1 1.5835,-3.82934 2.17183,2.17183 0 0 1 0.63184,-0.84271 c 0.36181,-0.24988 0.60473,-0.17157 0.65112,0.28106 a 8.352,8.352 0 0 1 -0.075,1.27271 55.33019,55.33019 0 0 0 2.54779,19.56927 c 0.1737,-0.0181 0.34814,-0.0349 0.52246,-0.0521 -0.0247,-1.9671 -0.0126,-3.93323 0.13269,-5.90692 a 61.85633,61.85633 0 0 1 1.09833,-8.31946 14.82511,14.82511 0 0 1 1.63946,-4.47858 5.31688,5.31688 0 0 1 1.97364,-2.04284 c 0.75921,-0.422 1.31085,-0.28669 1.65411,0.5028 a 41.98065,41.98065 0 0 1 3.61792,12.851 9.28543,9.28543 0 0 1 -0.1673,2.31457 1.095,1.095 0 0 0 0.51776,-0.50134 30.513,30.513 0 0 0 5.53449,-12.77576 23.18905,23.18905 0 0 0 0.0305,-5.62329 c -0.0518,-0.57855 -0.428,-1.393 0.11975,-1.67865 0.65728,-0.34265 1.07666,0.49 1.50836,0.91248 a 28.43608,28.43608 0 0 1 7.0097,10.29675 c 1.24878,3.32825 1.88538,6.75134 0.86658,10.10193 a 86.8054,86.8054 0 0 0 3.20441,-8.70038 28.19806,28.19806 0 0 0 1.2525,-8.80957 c -0.0196,-0.51062 -0.1886,-1.23981 0.372,-1.4447 0.6532,-0.23877 1.067,0.40411 1.42645,0.88684 a 9.87494,9.87494 0 0 1 1.52722,2.905 26.82168,26.82168 0 0 1 1.21686,6.34723 c 0.0111,0.0785 -0.0388,0.16754 0.0257,0.245 a 0.67473,0.67473 0 0 1 -0.003,-0.295 37.52748,37.52748 0 0 0 1.69061,-7.54541 c 0.3031,-3.288 0.17615,-6.50745 -1.56873,-9.45026 a 1.63324,1.63324 0 0 1 0.004,-1.8847 c 0.45654,-0.69623 0.50366,-1.63166 1.25805,-2.15381 0.0211,0.007 0.0395,0.0159 0.0591,0.0241 0.92755,-3.79828 0.29925,-7.50116 -0.69983,-11.17737 -0.31433,-1.15686 -0.675,-2.30115 -1.01447,-3.451 l -0.007,-0.017 c -0.41546,0.0093 -0.51648,-0.35577 -0.62658,-0.64606 -0.32581,-0.85919 -0.69568,-1.70239 -0.95734,-2.494 a 30.35658,30.35658 0 0 1 -0.87579,8.79241 7.59218,7.59218 0 0 1 -2.26484,3.65131 3.58616,3.58616 0 0 1 -1.16986,0.71661 c -0.921,0.31958 -1.43127,0.10993 -1.71991,-0.827 a 9.11036,9.11036 0 0 1 -0.1051,-4.62506 12.618,12.618 0 0 1 1.50385,-3.8454 8.16035,8.16035 0 0 0 0.80969,-1.6391 11.62692,11.62692 0 0 0 -3.08008,0.54041 c -0.35412,0.10565 -0.70544,0.38476 -1.10193,0.10717 h -1.2e-4 a 10.83648,10.83648 0 0 0 -3.38306,2.35779 c -0.41766,0.64319 -0.83538,1.28632 -1.35492,2.08618 a 45.66676,45.66676 0 0 0 -4.5816,-9.77313 27.39378,27.39378 0 0 1 0.44263,4.22864 16.48647,16.48647 0 0 1 -2.93732,8.177 c -0.43256,0.66657 -0.61621,0.24317 -0.82544,-0.17425 a 32.276,32.276 0 0 1 -2.85,-9.27979 c -0.0895,-0.53894 -0.17914,-1.07782 -0.29621,-1.78229 A 40.739,40.739 0 0 0 171.826,94.4711 c -0.434,-1.04443 -0.75147,-1.83044 -1.08588,-2.60919 a 30.8886,30.8886 0 0 0 -3.29,-5.56763 c -0.20062,-0.28412 -0.48834,-0.52453 -0.52124,-0.90728 v -7e-5 c -0.87536,-0.79351 -1.43945,-1.89794 -2.621,-2.64294 0.91779,3.5882 -0.0974,6.76074 -1.33508,10.06287 a 21.08165,21.08165 0 0 1 -2.21393,-5.51709 c -0.78442,-1.153 -0.645,-2.52167 -0.8244,-3.80078 a 5.37966,5.37966 0 0 1 0.14378,-2.59676 z"
       class="cls-5"
       id="path2876" /><path
       d="m 166.71582,139.28127 q -0.0233,-1.13058 -0.0384,-2.25964 c -0.17432,0.0172 -0.34876,0.034 -0.52246,0.0521 0.0909,0.28833 0.17084,0.57819 0.26636,0.86591 a 4.694,4.694 0 0 1 0.29449,1.34167 z m -15.0694,-56.42071 c 0.42841,-0.08985 0.49976,-0.47077 0.61389,-0.79242 0.508,-1.43158 1.06788,-2.84345 1.65662,-4.38678 a 47.37741,47.37741 0 0 0 0.1889,7.389 36.10492,36.10492 0 0 0 1.18628,6.79028 c 0.10993,0.39026 0.2085,0.95148 0.71,0.92322 0.42382,-0.02387 0.494,-0.543 0.56494,-0.92725 a 60.68485,60.68485 0 0 1 3.51795,-11.23024 5.5754,5.5754 0 0 1 0.0221,-0.12214 0.468,0.468 0 0 0 -0.19947,-0.2702 l 3.1e-4,-1.8e-4 -2.5e-4,-6e-5 a 71.25116,71.25116 0 0 0 -3.94366,12.4458 c -1.69373,-5.16522 -1.86249,-10.48517 -2.03156,-15.85907 q -1.14533,3.00074 -2.29058,6.00146 l -0.007,0.026 z m 11.96076,34.64386 a 8.352,8.352 0 0 0 0.075,-1.27271 c -0.0464,-0.45263 -0.28931,-0.53094 -0.65112,-0.28106 a 2.17183,2.17183 0 0 0 -0.63184,0.84271 19.96438,19.96438 0 0 0 -1.5835,3.82934 17.40127,17.40127 0 0 0 -0.86389,6.27076 54.3769,54.3769 0 0 1 -2.46832,-6.79371 c -0.77289,-2.95977 -1.50427,-5.92315 -0.91412,-9.02087 a 1.39637,1.39637 0 0 0 -0.71674,-1.43292 8.99778,8.99778 0 0 1 -2.74762,-3.59009 29.22284,29.22284 0 0 1 -2.19336,-6.31628 c -0.0752,-0.359 -0.0214,-0.85321 -0.53754,-0.96918 l 0.002,0.017 -6e-5,1.8e-4 1.3e-4,1.2e-4 a 31.92268,31.92268 0 0 0 2.88458,8.26673 7.19468,7.19468 0 0 0 2.48083,2.845 1.11778,1.11778 0 0 1 0.51148,1.429 9.33417,9.33417 0 0 0 -0.12421,3.80085 39.04477,39.04477 0 0 0 2.52429,9.38842 c 0.46839,1.17066 0.98407,2.32233 1.47815,3.48267 a 20.30177,20.30177 0 0 1 3.21112,-12.02521 54.0213,54.0213 0 0 0 2.56482,21.12323 c 0.0823,-0.009 0.16553,-0.0162 0.248,-0.0247 a 55.33019,55.33019 0 0 1 -2.54785,-19.56926 z m 39.01159,-14.72986 c -0.75439,0.52215 -0.80151,1.45758 -1.25805,2.15381 a 1.63324,1.63324 0 0 0 -0.004,1.8847 c 1.74488,2.94281 1.87183,6.16229 1.56873,9.45026 a 37.52748,37.52748 0 0 1 -1.69061,7.54541 0.67473,0.67473 0 0 0 0.003,0.295 c -0.0645,-0.0774 -0.0146,-0.1665 -0.0257,-0.245 a 26.82168,26.82168 0 0 0 -1.21686,-6.34723 9.87494,9.87494 0 0 0 -1.52722,-2.905 c -0.35943,-0.48273 -0.77325,-1.12561 -1.42645,-0.88684 -0.56061,0.20489 -0.3916,0.93408 -0.372,1.4447 a 28.19806,28.19806 0 0 1 -1.2525,8.80957 86.8054,86.8054 0 0 1 -3.20441,8.70038 c 1.0188,-3.35059 0.3822,-6.77368 -0.86658,-10.10193 a 28.43608,28.43608 0 0 0 -7.0097,-10.29675 c -0.4317,-0.42249 -0.85108,-1.25513 -1.50836,-0.91248 -0.54779,0.28565 -0.17157,1.1001 -0.11975,1.67865 a 23.18905,23.18905 0 0 1 -0.0305,5.62329 30.513,30.513 0 0 1 -5.53449,12.77576 1.095,1.095 0 0 1 -0.51776,0.50134 9.28543,9.28543 0 0 0 0.1673,-2.31457 41.98065,41.98065 0 0 0 -3.61792,-12.851 c -0.34326,-0.78949 -0.8949,-0.9248 -1.65411,-0.5028 a 5.31688,5.31688 0 0 0 -1.97364,2.04284 14.82511,14.82511 0 0 0 -1.63946,4.47858 61.85633,61.85633 0 0 0 -1.09833,8.31946 c -0.14526,1.97369 -0.15735,3.93982 -0.13269,5.90692 0.0754,-0.007 0.15051,-0.0153 0.226,-0.0226 a 80.96451,80.96451 0 0 1 0.46485,-8.98682 31.43161,31.43161 0 0 1 1.82861,-8.34827 6.40033,6.40033 0 0 1 2.33655,-3.08868 c 0.678,-0.44293 1.132,-0.49658 1.43341,0.409 0.29016,0.87146 0.72125,1.69549 1.02215,2.56408 1.41034,4.07117 2.93268,8.125 2.30848,12.57324 a 0.55169,0.55169 0 0 0 0.23706,0.6651 c 4.677,-6.36975 7.78985,-13.16259 6.24945,-21.37078 0.18872,0.0406 0.27356,0.033 0.31573,0.0717 a 30.16261,30.16261 0 0 1 8.078,11.43653 18.65212,18.65212 0 0 1 1.233,5.98931 30.59544,30.59544 0 0 1 -0.49445,4.59675 c 2.97516,-6.21961 5.48383,-12.5644 5.04016,-19.71119 a 2.24764,2.24764 0 0 1 1.33722,1.06788 c 2.02258,2.75506 2.21771,6.04309 2.71393,9.244 l 0.41693,0.0102 v 6e-5 h 6e-5 a 37.005,37.005 0 0 0 1.77429,-7.69184 c 0.35712,-3.51171 0.19916,-6.90271 -1.71368,-10.00116 a 0.95063,0.95063 0 0 1 -0.0477,-1.06817 c 0.43262,-0.84308 0.8288,-1.7049 1.23987,-2.559 l 5.5e-4,-0.002 c -0.0197,-0.008 -0.0381,-0.0169 -0.0592,-0.0241 z"
       class="cls-5"
       id="path2878" /><path
       d="m 166.71582,139.28127 a 4.694,4.694 0 0 0 -0.29449,-1.34167 c -0.0955,-0.28772 -0.17548,-0.57758 -0.26636,-0.86591 -0.0825,0.009 -0.16565,0.0159 -0.248,0.0247 0.30017,0.92291 0.62079,1.843 0.96869,2.75916 0.0111,-0.95319 0.0177,-1.90607 0.0278,-2.85852 -0.0755,0.007 -0.15063,0.0151 -0.226,0.0226 q 0.0142,1.12937 0.0384,2.25964 z m 25.75476,-51.5039 a 11.62692,11.62692 0 0 1 3.08008,-0.54041 8.16035,8.16035 0 0 1 -0.80969,1.6391 12.618,12.618 0 0 0 -1.50385,3.8454 9.11036,9.11036 0 0 0 0.1051,4.62506 c 0.28864,0.93689 0.79889,1.14654 1.71991,0.827 a 3.58616,3.58616 0 0 0 1.16986,-0.71661 7.59218,7.59218 0 0 0 2.26484,-3.65131 30.35658,30.35658 0 0 0 0.87579,-8.79241 c 0.26166,0.79162 0.63153,1.63482 0.95734,2.494 0.1101,0.29029 0.21112,0.6554 0.62658,0.64606 q -0.85473,-2.05719 -1.70947,-4.11432 c -0.18713,1.20862 -0.11768,2.37274 -0.20239,3.52558 a 23.54955,23.54955 0 0 1 -0.82184,6.16162 6.49022,6.49022 0 0 1 -3.29,4.205 c -0.74591,0.34363 -1.15,0.10883 -1.33972,-0.623 a 9.83318,9.83318 0 0 1 -0.11725,-4.30737 15.17909,15.17909 0 0 1 2.24329,-5.23005 c 0.1538,-0.24609 0.33569,-0.55542 0.20422,-0.78668 -0.14911,-0.26221 -0.52411,-0.14374 -0.78412,-0.09827 a 14.98718,14.98718 0 0 0 -3.77057,0.99878 c 0.39645,0.27759 0.74777,-0.0015 1.10189,-0.10717 z"
       class="cls-5"
       id="path2880" /><path
       fill="#f05a29"
       d="m 295.31848,312.36556 c -0.976,-0.65576 -2.08044,-1.04132 -3.17865,-1.64337 0.12207,-0.0303 0.243,-0.0656 0.36621,-0.0901 3.84442,-0.76831 5.11212,-2.20355 5.3216,-6.117 q 0.25589,-4.77951 0.062,-9.56519 a 7.97084,7.97084 0 0 0 -4.46033,-7.09674 16.13912,16.13912 0 0 0 -7.92181,-1.674 q -18.786,-0.0251 -37.572,-0.007 c -1.512,7e-5 -1.62433,0.11029 -1.62232,1.64185 0.009,6.66962 0.0316,13.33923 0.0302,20.00891 q -0.003,15.007 -0.0305,30.01392 c -0.002,1.68573 0.0549,1.74084 1.73986,1.7395 q 19.47731,-0.0152 38.95466,-0.0281 a 21.94825,21.94825 0 0 0 4.43719,-0.4212 c 4.03876,-0.832 7.60919,-3.291 7.7572,-8.4942 0.113,-3.96857 0.0768,-7.94385 0.005,-11.91437 -0.0511,-2.83094 -1.62196,-4.83052 -3.88838,-6.35304 z m -40.48309,-19.67523 c 9.89868,0.0359 19.79742,0.034 29.69617,0.053 a 8.31279,8.31279 0 0 1 3.20733,0.67193 4.13,4.13 0 0 1 2.70593,3.96039 c 0.0538,2.01935 0.0874,4.03784 0.0153,6.0597 -0.12609,3.5401 -1.8139,5.22692 -5.36865,5.23437 -5.03772,0.0105 -10.0755,0.003 -15.11322,0.003 v 0.0666 c -5.14441,0 -10.28894,-0.0103 -15.43329,0.0114 -0.75067,0.003 -0.975,-0.27594 -0.97284,-1.00415 q 0.0202,-6.865 -0.0313,-13.73 c -0.007,-0.93632 0.30188,-1.32959 1.29456,-1.32599 z m 36.81885,36.04352 a 3.59064,3.59064 0 0 1 -3.01044,3.81451 23.87091,23.87091 0 0 1 -6.33545,0.50464 c -3.9704,0.0505 -7.94183,0.0145 -11.9129,0.0145 q -7.65839,0 -15.31678,-0.002 c -1.40637,-10e-4 -1.52478,-0.11975 -1.52581,-1.50733 q -0.006,-7.49788 6.1e-4,-14.99578 c 0.001,-1.27143 0.15374,-1.43555 1.39392,-1.43262 q 15.527,0.0364 31.05389,0.0973 a 9.1014,9.1014 0 0 1 1.99372,0.26819 c 2.7041,0.627 3.69555,1.8739 3.69628,4.62567 8e-4,2.87091 -4.8e-4,5.74206 -0.037,8.61261 z M 59.85413,296.56911 a 11.82588,11.82588 0 0 0 -10.303,-10.66888 104.40332,104.40332 0 0 0 -10.95,-0.11847 c -7.16162,-0.003 -14.32367,-0.0573 -21.48725,0.1098 a 11.85148,11.85148 0 0 0 -11.98449,12.0091 c -0.01008,4.64721 -0.0019,9.29455 -0.0019,13.94177 q 0,7.5575 0.00135,15.11493 a 11.8854,11.8854 0 0 0 12.13946,12.2204 c 5.07318,0.0355 10.14685,0.007 15.22028,0.007 v -0.0336 c 3.72467,0 7.44977,0.0347 11.17383,-0.0129 a 35.75742,35.75742 0 0 0 6.78894,-0.308 11.77647,11.77647 0 0 0 9.51147,-11.93109 q 0.01841,-10.00562 -0.005,-20.01123 c -0.01367,-3.4396 0.13758,-6.88168 -0.10369,-10.31888 z m -12.591,36.0196 c -3.89911,0.25567 -7.79834,0.10449 -11.69708,0.1333 -4.753,0.0351 -9.50641,0.01 -14.25958,0.007 a 24.396,24.396 0 0 1 -3.38153,-0.0433 6.0921,6.0921 0 0 1 -5.547,-6.22705 c -0.14276,-4.7829 -0.18213,-9.569 -0.25629,-14.35382 -0.067,-4.3241 0.02594,-8.657 -0.22717,-12.96985 a 6.427,6.427 0 0 1 6.64526,-6.81818 c 4.64637,-0.0208 9.29291,-0.005 13.93933,-0.005 l 7e-5,-0.0834 q 7.02,0 14.03991,-8e-4 a 6.20634,6.20634 0 0 1 6.10724,5.43555 72.1735,72.1735 0 0 1 0.2107,7.86237 c 0.12377,6.9118 0.11907,13.82666 0.31707,20.736 a 6.34015,6.34015 0 0 1 -5.89094,6.32656 z m 306.2777,-13.24012 a 11.582,11.582 0 0 0 -10.28735,-10.774 71.9144,71.9144 0 0 0 -8.39984,-0.0993 c -6.70343,0.002 -13.40686,0.0253 -20.11017,8.6e-4 a 6.36822,6.36822 0 0 1 -5.06061,-2.2926 5.651,5.651 0 0 1 -1.16577,-2.35444 13.85563,13.85563 0 0 1 -0.16949,-5.80334 c 0.59643,-3.35364 3.01373,-5.30725 6.64941,-5.3136 q 16.2291,-0.0282 32.45819,-0.005 c 0.46082,6e-5 0.92175,0.0124 1.38232,0.0278 0.8169,0.0272 1.147,-0.38989 1.13355,-1.1767 -0.0231,-1.34741 -0.073,-2.69726 -0.0162,-4.04205 0.0433,-1.02521 -0.34833,-1.36249 -1.36078,-1.35889 -12.05988,0.0423 -24.11994,0.028 -36.17969,0.0837 a 11.385,11.385 0 0 0 -11.11084,9.45764 42.51868,42.51868 0 0 0 -0.0793,9.54987 10.347,10.347 0 0 0 4.16938,7.361 13.05879,13.05879 0 0 0 8.61419,2.74866 c 8.69,-0.0525 17.38044,-0.0225 26.07074,-0.0157 a 5.99024,5.99024 0 0 1 6.202,5.26795 25.98584,25.98584 0 0 1 0.0381,6.898 5.93993,5.93993 0 0 1 -5.19672,5.39941 10.40246,10.40246 0 0 1 -1.80206,0.0989 q -17.55936,0.008 -35.11872,0.006 c -1.43872,5.5e-4 -1.33868,-0.22241 -1.34485,1.38715 q -0.007,1.86236 1.3e-4,3.72473 c 0.005,1.37665 0.0769,1.4508 1.441,1.45129 q 9.47141,0.003 18.94281,10e-4 v -0.0333 c 6.2785,0 12.55706,0.0156 18.83544,-0.005 a 11.7016,11.7016 0 0 0 11.35749,-9.89025 48.23707,48.23707 0 0 0 0.10761,-10.30015 z M 242.16071,286.16183 c -12.52216,0.0151 -25.04462,-0.043 -37.56635,0.0311 a 11.68534,11.68534 0 0 0 -12.05463,11.94715 c -0.12225,9.82391 -0.0269,19.65045 -0.025,29.47589 a 11.99624,11.99624 0 0 0 11.97327,11.96045 q 9.20489,0.004 18.40979,5.5e-4 9.52413,0 19.04821,-7.3e-4 c 1.47138,-3.7e-4 1.5376,-0.0705 1.5409,-1.57911 q 0.004,-1.80908 0,-3.61828 c -0.003,-1.39984 -0.005,-1.40149 -1.428,-1.40155 q -17.66583,-7.4e-4 -35.33161,-8e-4 c -4.42645,-4.8e-4 -6.96466,-2.5111 -6.97229,-6.8991 -0.005,-3.19184 0.034,-6.38422 -0.0232,-9.575 -0.0165,-0.91571 0.18933,-1.19018 1.15613,-1.18689 11.13855,0.0381 22.27728,0.0244 33.416,0.0239 0.31922,0 0.63855,0 0.95764,-0.009 0.54346,-0.015 0.86609,-0.25623 0.86469,-0.84168 q -0.006,-2.50084 -0.001,-5.00177 c 7.3e-4,-0.50793 -0.19391,-0.80719 -0.752,-0.7918 -0.38928,0.0107 -0.7796,-0.0221 -1.1695,-0.0217 q -16.44122,0.0146 -32.8825,0.0315 c -1.46247,10e-4 -1.60486,-0.14142 -1.60016,-1.566 q 0.013,-3.99022 0.0337,-7.98041 a 6.04783,6.04783 0 0 1 5.817,-6.25232 c 1.27075,-0.0912 2.55212,-0.0439 3.82861,-0.0441 q 16.28238,-0.004 32.5647,-0.002 c 1.498,-1.2e-4 1.579,-0.0367 1.50659,-1.56708 a 34.07421,34.07421 0 0 1 0.02,-3.82061 c 0.0629,-0.97211 -0.38782,-1.31183 -1.33105,-1.31067 z m -138.62018,21.64373 c -1.33533,-4.4107 -5.93665,-7.57452 -11.07672,-7.57971 q -13.51675,-0.0136 -27.03363,-0.002 c -1.50751,1.8e-4 -1.50824,0.003 -1.5083,1.56738 q -3.8e-4,12.7718 -1.3e-4,25.54364 h -0.02148 q 0,13.09076 -0.0075,26.18146 c -0.0012,0.87311 0.3858,1.19867 1.2273,1.18457 1.596,-0.0267 3.19488,-0.0562 4.78845,0.0123 0.818,0.0352 0.9978,-0.22852 0.9909,-1.01081 -0.03826,-4.32788 -0.0026,-8.65637 -0.03118,-12.98437 -0.0058,-0.87879 0.31945,-1.18878 1.1867,-1.184 q 8.72553,0.0481 17.45142,0.0325 a 39.52665,39.52665 0 0 0 5.205,-0.18555 10.69006,10.69006 0 0 0 9.22571,-10.1311 c 0.0432,-6.2757 0.011,-12.55194 0.01,-18.828 a 8.99085,8.99085 0 0 0 -0.4063,-2.61618 z m -6.62853,20.2082 a 5.44563,5.44563 0 0 1 -5.38715,5.347 c -6.4898,0.0264 -12.97986,-0.002 -19.46966,0.0206 -0.87342,0.003 -1.19232,-0.30884 -1.1864,-1.18323 0.02783,-4.11413 0.01239,-8.22857 0.01232,-12.34289 q 0,-6.01191 0.0014,-12.02375 c 0.0012,-1.26556 0.153,-1.4295 1.39416,-1.43072 5.92322,-0.006 11.8465,-0.0215 17.7696,0.006 2.64965,0.0123 4.98858,0.70618 6.30688,3.30554 a 4.88077,4.88077 0 0 1 0.56995,2.24134 c -0.0043,5.35338 0.02001,10.70699 -0.01111,16.06014 z m 39.60326,-27.5813 q -9.884,-0.41317 -19.77387,-0.04 A 10.68242,10.68242 0 0 0 106.35052,311.288 q -0.0252,9.73764 9.2e-4,19.4754 a 9.65374,9.65374 0 0 0 0.43781,3.14276 8.81331,8.81331 0 0 0 8.35846,5.634 c 2.62445,0.0288 5.24926,0.0301 7.8739,0.0322 6.24347,0.005 12.487,-0.004 18.7304,0.0133 0.81049,0.002 1.16889,-0.28687 1.13349,-1.12555 -0.0449,-1.06171 -0.0331,-2.127 -0.0111,-3.19007 0.0337,-1.62634 -0.01,-1.68738 -1.62311,-1.68756 q -12.078,-10e-4 -24.15594,-0.002 c -2.62506,-0.001 -3.81012,-1.20538 -3.81336,-3.85528 -0.002,-1.56086 0.009,-3.12183 -0.006,-4.68262 -0.0132,-1.38684 0.0995,-1.52191 1.4892,-1.52283 q 7.50283,-0.005 15.00567,-10e-4 7.50275,0 15.00562,-0.001 c 1.53387,-8.5e-4 1.6889,-0.1571 1.6828,-1.72216 -0.0142,-3.65259 -0.0464,-7.30512 -0.0535,-10.95771 a 10.49362,10.49362 0 0 0 -9.89105,-10.40541 z m 2.95318,15.43451 c -0.002,1.3186 -0.14117,1.4552 -1.45263,1.44525 q -3.82809,-0.0292 -7.65619,-0.0555 c -1.34735,-0.008 -2.69489,-10e-4 -4.0423,-10e-4 l -6e-5,0.0554 c -3.89947,0 -7.79907,-0.0138 -11.69836,0.01 -0.959,0.006 -1.44153,-0.259 -1.35828,-1.34186 0.0922,-1.19854 0.008,-2.40979 0.0239,-3.61517 a 5.72029,5.72029 0 0 1 5.81378,-5.78217 q 7.28548,-0.0249 14.57116,-0.002 a 5.64534,5.64534 0 0 1 5.79346,5.67053 c 0.033,1.20467 0.007,2.41101 0.005,3.61667 z m 49.5058,-8.58405 a 11.532,11.532 0 0 0 -10.82446,-7.05627 c -3.90259,-0.0164 -7.80554,-0.0307 -11.70782,0.006 a 78.72718,78.72718 0 0 0 -8.07892,0.158 c -5.02161,0.56354 -9.42865,4.976 -9.4715,9.78979 -0.0839,9.43628 -0.0377,18.87372 -0.0649,28.31055 -0.002,0.849 0.35333,1.11768 1.15735,1.09461 1.453,-0.0418 2.90814,-0.0368 4.36188,-0.0164 1.35656,0.019 1.48181,-0.0745 1.4823,-1.40235 q 0.003,-8.51486 0.002,-17.02966 c 0.002,-3.0509 -0.0538,-6.10413 0.0479,-9.15192 a 5.30492,5.30492 0 0 1 5.111,-5.38739 153.90287,153.90287 0 0 1 16.26385,-0.0125 5.24586,5.24586 0 0 1 5.04621,4.2547 24.05515,24.05515 0 0 1 0.24231,5.509 c 0.0395,7.23645 -0.0164,14.47333 -0.0314,21.71 -0.003,1.34393 0.19385,1.52966 1.41694,1.51727 q 2.0744,-0.0209 4.14917,-5.5e-4 c 1.2564,0.0141 1.42212,-0.12555 1.423,-1.38342 q 0.005,-7.07795 0.001,-14.156 c 0,-3.76068 0.0324,-7.52185 -0.0138,-11.282 -0.0225,-1.83121 0.16805,-3.68645 -0.51271,-5.47153 z"
       id="path2882" /><path
       d="m 167.55505,85.95266 a 29.52206,29.52206 0 0 1 4.19184,7.7489 40.35782,40.35782 0 0 1 3.07531,-9.16913 0.351,0.351 0 0 0 0.0214,-0.05316 c 0.005,-0.0066 0.0118,-0.01782 0.0262,-0.04175 0.178,-0.29455 0.28381,-0.76355 0.67615,-0.72992 0.42529,0.0365 0.40545,0.52936 0.45984,0.85413 a 43.83721,43.83721 0 0 0 1.37927,6.11145 22.15051,22.15051 0 0 0 1.41132,3.55084 c 0.29962,0.57434 0.57849,0.549 0.88977,0.02942 1.90893,-3.18628 3.06646,-6.53516 2.29028,-10.32318 -0.0922,-0.44983 -0.44647,-0.92847 -0.0259,-1.4 0.034,0.0021 0.0654,0.0068 0.0971,0.01135 l -0.0248,-0.227 h 1.2e-4 l -1.2e-4,-6e-5 a 1.90462,1.90462 0 0 0 -0.97229,-0.76923 12.73667,12.73667 0 0 0 -3.70191,-0.90094 v 3.1e-4 q -0.93585,-9.1e-4 -1.87176,-0.0016 v -3e-4 a 11.84326,11.84326 0 0 0 -8.54786,4.74407 v 1.3e-4 a 2.14413,2.14413 0 0 1 0.62616,0.56566 z"
       class="cls-7"
       id="path2884" /><path
       d="m 181.95044,82.5303 c -0.42053,0.47149 -0.0662,0.95013 0.0259,1.4 0.77618,3.788 -0.38135,7.1369 -2.29028,10.32318 -0.31128,0.51959 -0.59015,0.54492 -0.88977,-0.02942 a 22.15051,22.15051 0 0 1 -1.41132,-3.55084 43.83721,43.83721 0 0 1 -1.37927,-6.11145 c -0.0544,-0.32477 -0.0345,-0.81763 -0.45984,-0.85413 -0.39234,-0.03363 -0.49811,0.43537 -0.67615,0.72992 -0.0144,0.02393 -0.0217,0.0351 -0.0262,0.04175 a 0.351,0.351 0 0 1 -0.0214,0.05316 40.35782,40.35782 0 0 0 -3.07531,9.16913 29.52206,29.52206 0 0 0 -4.19184,-7.7489 2.14413,2.14413 0 0 0 -0.62616,-0.56567 c 0.0329,0.38275 0.32062,0.62316 0.52124,0.90728 a 30.8886,30.8886 0 0 1 3.29,5.56763 c 0.33441,0.77875 0.65192,1.56476 1.08588,2.60919 a 40.739,40.739 0 0 1 3.75659,-10.7464 c 0.11707,0.70447 0.20667,1.24335 0.29621,1.78229 a 32.276,32.276 0 0 0 2.85,9.27979 c 0.20923,0.41742 0.39288,0.84082 0.82544,0.17425 a 16.48647,16.48647 0 0 0 2.93732,-8.177 27.39378,27.39378 0 0 0 -0.44263,-4.22864 l -10e-4,-0.01373 c -0.0317,-0.0046 -0.063,-0.0093 -0.097,-0.01139 z m -4.63294,-15.14222 0.001,-5.5e-4 c 0.45886,-0.17492 0.92078,-0.34234 1.3761,-0.526 a 5.437,5.437 0 1 0 -7.53443,-5.26159 c -0.0759,2.77936 1.26355,4.53051 4.3277,5.65783 a 4.15586,4.15586 0 0 1 1.82922,0.13031 z"
       class="cls-7"
       id="path2886" /><path
       d="m 177.34851,80.64443 -0.0295,-13.2558 -0.002,-5.5e-4 a 1.719,1.719 0 0 1 -1.82922,-0.13031 l -0.0115,13.38508 a 1.7162,1.7162 0 0 1 1.87176,0.0016 z"
       class="cls-8"
       id="path2888" /><path
       d="m 177.34851,80.64474 v -3.1e-4 a 1.7162,1.7162 0 0 0 -1.87176,-0.0016 v 3e-4 q 0.93585,0.001 1.87176,0.0016 z m -0.031,-13.25666 a 4.15586,4.15586 0 0 0 -1.82922,-0.13031 1.719,1.719 0 0 0 1.82922,0.13031 z"
       class="cls-8"
       id="path2890" /><path
       d="m 182.0614,82.5433 c 0.66846,0.10315 0.8103,0.73925 1.05219,1.21447 a 46.96861,46.96861 0 0 1 3.49444,7.88715 c 0.61395,-0.44244 0.76258,-1.17267 1.37744,-1.40259 -0.21258,-0.18139 -0.17785,-0.44885 -0.23181,-0.683 a 11.54589,11.54589 0 0 0 -3.7138,-6.129 c -0.57477,-0.51141 -1.1225,-1.14893 -2.017,-1.11566 a 0.16226,0.16226 0 0 1 0.0663,0.15509 0.15192,0.15192 0 0 1 -0.0277,0.07354 z"
       class="cls-7"
       id="path2892" /><path
       d="m 186.608,91.64492 a 46.96861,46.96861 0 0 0 -3.49444,-7.88715 c -0.24189,-0.47522 -0.38373,-1.11132 -1.05219,-1.21447 -0.004,0.0045 -0.008,0.01208 -0.0125,0.01208 a 45.66676,45.66676 0 0 1 4.5816,9.77313 c 0.51954,-0.79986 0.93726,-1.443 1.35492,-2.08618 -0.61483,0.22992 -0.76344,0.96015 -1.37744,1.40259 z m -4.56051,-9.10327 0.0139,0.0016 a 0.15192,0.15192 0 0 0 0.0277,-0.07355 0.16226,0.16226 0 0 0 -0.0663,-0.15509 h -1.2e-4 z"
       class="cls-7"
       id="path2894" /><path
       d="m 182.04749,82.54165 10e-4,0.01373 c 0.005,0 0.008,-0.0076 0.0125,-0.01208 z"
       class="cls-7"
       id="path2896" /><path
       d="m 160.20764,81.19332 a 27.43568,27.43568 0 0 0 0.55121,6.09644 63.51534,63.51534 0 0 0 -0.43646,-7.244 l -6e-5,6e-5 a 0.67177,0.67177 0 0 0 -0.179,0.30829 c 0.2451,0.2158 0.0678,0.57969 0.0643,0.83921 z"
       class="cls-9"
       id="path2898" /><path
       d="m 160.14331,80.35409 a 0.67177,0.67177 0 0 1 0.179,-0.30829 q -0.20719,0.09393 -0.41443,0.18805 a 0.60951,0.60951 0 0 1 0.23543,0.12024 z m 0,0 c -0.0147,0.049 -0.0264,0.09918 -0.0363,0.15014 a 0.64862,0.64862 0 0 1 -0.0288,0.388 5.37966,5.37966 0 0 0 -0.1438,2.59675 c 0.17938,1.27911 0.04,2.64782 0.8244,3.80078 a 27.43568,27.43568 0 0 1 -0.55121,-6.09644 c 0.003,-0.25952 0.18079,-0.62341 -0.0643,-0.83923 z"
       class="cls-9"
       id="path2900" /><path
       d="m 160.10706,80.50423 c 0.01,-0.051 0.0216,-0.10113 0.0363,-0.15014 a 0.60951,0.60951 0 0 0 -0.23541,-0.12024 l -3.1e-4,1.8e-4 a 0.468,0.468 0 0 1 0.19947,0.2702 z"
       class="cls-9"
       id="path2902" /><path
       d="m 151.004,84.11184 c 0.127,-0.46094 0.17169,-0.97034 0.62011,-1.27582 -0.47644,-0.49927 -0.30059,-1.11255 -0.24047,-1.68335 a 31.02385,31.02385 0 0 0 -0.004,-6.46985 c -0.18976,-1.83264 -0.10467,-3.6773 -0.22253,-5.51922 a 160.13154,160.13154 0 0 0 -2.33789,-18.97821 74.06741,74.06741 0 0 0 -6.62049,-20.0293 26.92525,26.92525 0 0 0 -7.53985,-9.49225 12.32672,12.32672 0 0 0 -9.94464,-2.372 c -6.61469,1.10028 -11.221,4.73859 -13.55127,11.16492 a 28.43061,28.43061 0 0 0 -1.81574,10.94171 76.7015,76.7015 0 0 0 1.83893,13.039 129.92166,129.92166 0 0 0 8.45313,25.83936 140.95518,140.95518 0 0 0 16.2975,27.85173 40.10882,40.10882 0 0 0 6.27,6.6319 c 1.49933,1.24268 2.33258,1.14618 3.30975,-0.54511 a 38.31255,38.31255 0 0 0 3.89893,-10.76092 28.30837,28.30837 0 0 1 0.895,-3.69733 c 0.0174,0.0026 0.0325,0.0068 0.0488,0.01026 a 3.34639,3.34639 0 0 1 -0.53382,-2.17963 39.18151,39.18151 0 0 1 1.17831,-12.47589 z"
       class="cls-7"
       id="path2904" /><path
       d="m 150.31061,98.7571 a 28.30837,28.30837 0 0 0 -0.895,3.69733 38.31255,38.31255 0 0 1 -3.89893,10.76092 c -0.97717,1.69129 -1.81042,1.78779 -3.30975,0.54511 a 40.10882,40.10882 0 0 1 -6.27,-6.6319 140.95518,140.95518 0 0 1 -16.29754,-27.85174 129.92166,129.92166 0 0 1 -8.45313,-25.83936 76.7015,76.7015 0 0 1 -1.83893,-13.039 28.43061,28.43061 0 0 1 1.81574,-10.94171 c 2.33032,-6.42633 6.93658,-10.06464 13.55127,-11.16492 a 12.32672,12.32672 0 0 1 9.94464,2.372 26.92525,26.92525 0 0 1 7.53985,9.49225 74.06741,74.06741 0 0 1 6.62049,20.0293 160.13154,160.13154 0 0 1 2.33789,18.97821 c 0.11786,1.84192 0.0328,3.68658 0.22253,5.51922 a 31.02385,31.02385 0 0 1 0.004,6.46985 c -0.0601,0.5708 -0.236,1.18408 0.24047,1.68335 l 0.0178,-0.014 c 0.0552,-2.86114 0.14294,-5.71472 0.0328,-8.585 -0.186,-4.84674 -0.54126,-9.66876 -1.10852,-14.48328 a 107.82041,107.82041 0 0 0 -3.031,-16.43634 c -1.80677,-6.47229 -4.11152,-12.76727 -8.11921,-18.23407 -3.796,-5.178 -8.6557,-8.39343 -15.47436,-6.97161 -4.89447,1.02056 -8.924,3.43737 -11.46356,7.8623 a 26.6335,26.6335 0 0 0 -3.41187,12.77948 47.25844,47.25844 0 0 0 0.56732,7.39209 113.912,113.912 0 0 0 4.60913,19.78058 144.06542,144.06542 0 0 0 16.21888,33.9173 c 3.28027,5.11139 6.7962,10.02887 11.42645,14.04644 1.76007,1.52716 2.76629,1.45337 3.88067,-0.53039 a 42.227,42.227 0 0 0 4.60724,-14.5719 l -0.0163,-0.0202 c -0.0162,-0.0035 -0.0313,-0.0077 -0.0488,-0.01031 z"
       class="cls-7"
       id="path2906" /><path
       d="m 151.004,84.11184 a 39.18151,39.18151 0 0 0 -1.17835,12.47589 3.34639,3.34639 0 0 0 0.53382,2.17963 l 0.0146,0.0031 c -0.0975,-0.9801 -0.22454,-1.95813 -0.286,-2.94025 A 39.90206,39.90206 0 0 1 151.635,82.848 l -0.0109,-0.012 c -0.44847,0.3055 -0.49313,0.8149 -0.62013,1.27584 z m -0.62992,14.65857 -0.0146,-0.0031 0.0163,0.0202 6e-5,-1.8e-4 z"
       class="cls-7"
       id="path2908" /><path
       d="m 151.635,82.848 0.007,-0.026 -0.0178,0.014 z m 49.32862,5.32225 a 0.9335,0.9335 0 0 1 0.5,0.64752 c 1.08039,3.51288 2.10315,7.04444 1.94745,10.77094 -0.0456,1.09143 0.0769,2.2716 -0.73211,3.21032 0.57,0.23517 0.5509,0.81574 0.67718,1.28846 a 39.55743,39.55743 0 0 0 3.18555,8.5556 c 1.25958,2.35406 2.03192,2.4732 4.03656,0.76776 a 52.88135,52.88135 0 0 0 8.94977,-10.48962 144.683,144.683 0 0 0 16.18334,-30.82764 117.62908,117.62908 0 0 0 7.08448,-28.42438 28.72659,28.72659 0 0 0 -2.5835,-16.56634 16.66587,16.66587 0 0 0 -16.79059,-8.87616 13.242,13.242 0 0 0 -7.3388,3.82794 c -3.64685,3.3421 -5.825,7.63513 -7.73859,12.09149 a 84.46691,84.46691 0 0 0 -5.77454,21.95422 c -0.61084,4.42255 -1.12719,8.85352 -1.32385,13.32166 -0.13074,2.971 -0.49548,5.94287 -0.35,8.91187 0.11425,2.33221 0.0731,4.67291 0.32885,7.00189 a 4.84567,4.84567 0 0 1 -0.18927,2.81592 0.66989,0.66989 0 0 1 -0.0718,0.0013 l -1.3e-4,0.017 z"
       class="cls-7"
       id="path2910" /><path
       d="m 201.22485,85.33578 c -0.25579,-2.329 -0.2146,-4.66968 -0.32885,-7.00189 -0.14551,-2.969 0.21923,-5.94086 0.35,-8.91187 0.19666,-4.46814 0.713,-8.89911 1.32385,-13.32166 a 84.46691,84.46691 0 0 1 5.77454,-21.95422 c 1.91357,-4.45636 4.09174,-8.74939 7.73859,-12.09149 a 13.242,13.242 0 0 1 7.3388,-3.82794 16.66587,16.66587 0 0 1 16.79059,8.87616 28.72659,28.72659 0 0 1 2.5835,16.56634 117.62908,117.62908 0 0 1 -7.08448,28.42438 144.683,144.683 0 0 1 -16.18339,30.82764 52.88135,52.88135 0 0 1 -8.94977,10.48962 c -2.00464,1.70544 -2.777,1.5863 -4.03656,-0.76776 a 39.55743,39.55743 0 0 1 -3.18555,-8.5556 c -0.12628,-0.47272 -0.10718,-1.05329 -0.67718,-1.28846 l -0.002,0.002 c 0.0816,0.23138 0.18378,0.4577 0.24164,0.69488 a 37.50707,37.50707 0 0 0 3.66217,9.80774 c 1.12829,1.98059 2.14648,2.10266 3.89044,0.61792 a 44.51837,44.51837 0 0 0 6.63269,-7.161 141.24477,141.24477 0 0 0 17.2995,-30.63782 123.2355,123.2355 0 0 0 8.37021,-30.03417 35.26676,35.26676 0 0 0 -0.282,-13.57818 c -1.06134,-4.35816 -2.8814,-8.36267 -6.59423,-11.09314 -3.95832,-2.91095 -8.43738,-4.31574 -13.37513,-3.29443 -3.78967,0.78381 -6.62579,3.20208 -8.92572,6.15045 -4.22766,5.4198 -6.675,11.73663 -8.51605,18.27081 -2.84241,10.08813 -3.92962,20.44257 -4.33124,30.88654 -0.083,2.15863 -0.207,4.31353 -0.11255,6.47363 0.12031,2.74921 0.38978,5.49249 0.32667,8.24878 a 0.66989,0.66989 0 0 0 0.0718,-0.0013 4.84567,4.84567 0 0 0 0.18927,-2.81592 z"
       class="cls-7"
       id="path2912" /><path
       d="m 203.41107,99.58871 c 0.1557,-3.7265 -0.86706,-7.25806 -1.94745,-10.77094 a 0.9335,0.9335 0 0 0 -0.5,-0.64752 c 0.33948,1.14984 0.70014,2.29413 1.01447,3.451 0.99908,3.67621 1.62738,7.37909 0.69983,11.17737 l 0.001,4.2e-4 c 0.80908,-0.93873 0.68656,-2.1189 0.73215,-3.21033 z"
       class="cls-7"
       id="path2914" /><path
       d="m 202.678,102.799 -0.001,0.002 0.002,-0.002 z"
       class="cls-7"
       id="path2916" /><path
       d="m 201.00757,124.11092 c 0.0331,0.16779 -0.123,0.45356 0.155,0.46753 0.22589,0.0114 0.24225,-0.26117 0.2619,-0.45727 a 0.27267,0.27267 0 0 1 -0.4169,-0.0103 z"
       class="cls-10"
       id="path2918" /><path
       d="m 201.00757,124.11092 a 0.27267,0.27267 0 0 0 0.41693,0.0103 v -6e-5 z"
       class="cls-10"
       id="path2920" /><path
       d="m 204.60162,243.36922 a 12.84731,12.84731 0 0 0 4.36676,-7.00579 7.484,7.484 0 0 0 0.13276,-4.496 c -1.17457,-2.97052 -5.72077,-6.00268 -8.91907,-6.03717 -4.46778,-0.0482 -7.64185,3.05921 -7.89728,7.85163 a 23.35242,23.35242 0 0 1 -3.32294,10.83581 72.24278,72.24278 0 0 1 11.04669,2.294 47.30487,47.30487 0 0 0 4.59308,-3.44248 z"
       class="cls-5"
       id="path2922" /><path
       d="m 185.03314,250.47408 a 1.63779,1.63779 0 0 0 0.78333,2.668 2.46353,2.46353 0 0 0 2.06274,-0.008 72.54333,72.54333 0 0 0 12.12933,-6.32269 72.24278,72.24278 0 0 0 -11.04669,-2.294 c -0.0936,0.1576 -0.17907,0.31781 -0.27649,0.47419 -1.16058,1.86281 -2.44098,3.65059 -3.65222,5.48219 z m -21.52997,-17.11151 a 7.65831,7.65831 0 0 0 -7.67443,-7.53375 9.15582,9.15582 0 0 0 -6.34113,2.57526 8.54162,8.54162 0 0 0 -1.43073,11.35693 20.63739,20.63739 0 0 0 4.41956,4.71 c 0.76,0.61041 1.54547,1.17688 2.34137,1.72553 a 79.03377,79.03377 0 0 1 11.69122,-2.012 24.43758,24.43758 0 0 1 -3.00586,-10.82197 z"
       class="cls-5"
       id="path2924" /><path
       d="m 168.639,253.26565 a 2.284,2.284 0 0 0 2.262,-0.89588 c 0.56689,-0.69244 0.12646,-1.38671 -0.30127,-1.93548 -0.67023,-0.8598 -1.00342,-1.96289 -1.662,-2.74335 a 22.64011,22.64011 0 0 1 -2.42859,-3.50635 79.03377,79.03377 0 0 0 -11.69122,2.012 86.1609,86.1609 0 0 0 11.79309,6.451 8.47692,8.47692 0 0 0 2.02799,0.61806 z m -13.31484,-81.61377 c -1.2862,-1.66406 -1.12525,-3.50543 0.45416,-5.16327 0.19568,-0.20538 0.39319,-0.41052 0.60492,-0.59876 a 2.44555,2.44555 0 0 0 0.94385,-2.72741 2.88546,2.88546 0 0 0 -2.35541,-2.05066 13.12027,13.12027 0 0 0 -15.04768,11.54107 13.2413,13.2413 0 0 0 7.03009,13.108 c 2.09479,1.02264 4.32385,0.95239 6.63733,1.133 a 11.52818,11.52818 0 0 0 9.54443,-4.50238 10.48218,10.48218 0 0 0 2.4,-8.52636 c -0.31464,-2.13959 -1.942,-2.8014 -3.72949,-1.65186 -0.35688,0.22949 -0.69971,0.48407 -1.0705,0.68793 -2.06148,1.13357 -3.902,0.70395 -5.4117,-1.2493 z m 33.77942,11.64477 c 2.52612,2.727 5.8183,3.46186 9.15039,3.52552 0.73773,0 1.27,0.008 1.80182,-0.001 6.05828,-0.10816 11.76092,-5.96686 11.696,-12.01337 -0.0275,-2.56525 -1.77569,-3.65253 -4.07916,-2.518 a 12.75374,12.75374 0 0 1 -2.411,1.08149 3.99512,3.99512 0 0 1 -4.42072,-1.97321 3.51008,3.51008 0 0 1 0.24079,-4.50317 c 0.38727,-0.4607 0.83667,-0.86994 1.21533,-1.337 a 2.59336,2.59336 0 0 0 -1.666,-4.39392 12.90874,12.90874 0 0 0 -11.32617,3.55719 c -3.26971,3.01684 -3.83416,6.98688 -3.318,11.15692 a 12.86133,12.86133 0 0 0 3.11672,7.41877 z"
       class="cls-5"
       id="path2926" /></g></svg>
