<?xml version="1.0" encoding="UTF-8" standalone="no"?>
<svg
   version="1.1"
   id="Calque_1"
   x="0"
   y="0"
   viewBox="0 0 300 300"
   style="enable-background:new 0 0 300 300"
   xml:space="preserve"
   sodipodi:docname="chaosmesh.svg"
   inkscape:version="1.1.2 (b8e25be8, 2022-02-05)"
   xmlns:inkscape="http://www.inkscape.org/namespaces/inkscape"
   xmlns:sodipodi="http://sodipodi.sourceforge.net/DTD/sodipodi-0.dtd"
   xmlns="http://www.w3.org/2000/svg"
   xmlns:svg="http://www.w3.org/2000/svg"><defs
     id="defs173"><style
       id="style3613">.cls-1{fill:#172d73;}.cls-2{fill:#fefefe;}.cls-3{fill:#4ccaf8;}.cls-4{fill:#f488a5;}.cls-5{fill:#4bcaf8;}.cls-6{fill:#4bcbf9;}.cls-7{fill:#f589a5;}.cls-8{fill:#f489a5;}.cls-9{fill:#10a5f5;}.cls-10{fill:#ef5e7f;}.cls-11{fill:#13a5f6;}.cls-12{fill:#ef5e80;}.cls-13{fill:#12a5f5;}.cls-14{fill:#f05f7f;}.cls-15{fill:#ef5f80;}.cls-16{fill:#13a6f6;}</style></defs><sodipodi:namedview
     id="namedview171"
     pagecolor="#ffffff"
     bordercolor="#666666"
     borderopacity="1.0"
     inkscape:pageshadow="2"
     inkscape:pageopacity="0.0"
     inkscape:pagecheckerboard="0"
     showgrid="false"
     inkscape:zoom="2.3666667"
     inkscape:cx="149.78873"
     inkscape:cy="150"
     inkscape:window-width="1312"
     inkscape:window-height="936"
     inkscape:window-x="0"
     inkscape:window-y="25"
     inkscape:window-maximized="0"
     inkscape:current-layer="Calque_1" /><style
     id="style108">.st1{fill:#f6d2a2}.st2{fill:#c6b198}.st3{fill:#37abc8}.st4{fill:none}.st5{fill:#077e91}.st6{fill:#fff}.st7{fill:#ef9325}.st8{fill:#e5e5e5}.st9{fill:#d2e261}.st10{fill:#9b9b9b}.st11{fill:#960000}.st12{fill:#595959}</style><g
     id="g3158"
     transform="translate(-21.04 -84.875) scale(.63926)"><g
       id="g3184" /><g
       id="g3194" /><g
       id="g3200" /><g
       id="g3208" /></g><g
     id="g3212"
     transform="translate(-21.04 -84.875) scale(.63926)" /><g
     id="g3220"
     transform="translate(-21.04 -84.875) scale(.63926)" /><g
     id="g3228"
     transform="translate(-21.04 -84.875) scale(.63926)" /><g
     id="g3238"
     transform="translate(-21.04 -84.875) scale(.63926)" /><g
     id="g3248"
     transform="translate(-21.04 -84.875) scale(.63926)"><g
       id="g3250" /><g
       id="g3256" /></g><g
     id="g3268"
     transform="translate(-21.04 -84.875) scale(.63926)" /><g
     id="g3678"
     transform="matrix(0.52000244,0,0,0.52000244,55.469339,81.158985)"><path
       class="cls-1"
       d="m 277.21453,146.32211 c -0.651,-1.65472 -2.0373,-1.96083 -3.74544,-1.43729 -3.44225,1.055 -6.95079,1.90157 -10.36938,3.02375 a 2.41623,2.41623 0 0 1 -2.18263,0.001 13.405,13.405 0 0 0 -9.42948,-7.3253 3.66876,3.66876 0 0 1 -0.898,-2.27695 112.41774,112.41774 0 0 0 -5.47476,-21.75712 3.62493,3.62493 0 0 1 -0.22781,-2.6719 13.37818,13.37818 0 0 0 5.73592,-9.65671 5.75232,5.75232 0 0 1 3.68087,-1.72605 c 6.97437,-1.37409 13.829,-3.26064 20.63167,-5.3217 1.72966,-0.524 2.92309,-1.60353 2.37023,-3.537 -0.55886,-1.95473 -2.11343,-2.1894 -3.8749,-1.665 -0.86042,0.25619 -1.72255,0.50664 -2.58159,0.76713 -6.32788,1.91837 -12.755,3.44817 -19.20519,4.8881 a 2.48075,2.48075 0 0 1 -2.111,-0.18254 13.28437,13.28437 0 0 0 -13.72871,-7.86187 2.39692,2.39692 0 0 1 -0.99487,-1.47663 148.87881,148.87881 0 0 1 -4.47894,-20.795 3.24278,3.24278 0 0 1 0.50536,-2.64409 13.392,13.392 0 0 0 8.971,-11.44793 l 35.19409,-9.05244 c 1.77565,-0.54393 2.81379,-1.667 2.28629,-3.58475 -0.524,-1.90585 -2.10812,-1.87286 -3.67813,-1.63483 a 8.644,8.644 0 0 0 -1.14928,0.35076 308.06815,308.06815 0 0 1 -31.53633,7.48565 3.52,3.52 0 0 1 -2.16162,-0.0613 13.43493,13.43493 0 0 0 -8.1476,-7.40751 c -0.0857,-0.02787 -0.17457,-0.04785 -0.26091,-0.074 0.10331,-0.68421 0.91311,-6.04664 1.1966,-7.887 a 93.93631,93.93631 0 0 1 6.3662,-24.07828 c 0.74665,-1.70189 0.73173,-3.15717 -1.10229,-4.0487 -1.90156,-0.92448 -3.0132,0.13435 -3.79233,1.75738 -0.25988,0.54121 -0.49748,1.09346 -0.73386,1.64555 -4.16188,9.718 -5.79423,19.891 -7.86117,30.34787 a 3.15308,3.15308 0 0 1 -0.89566,2.02256 13.39319,13.39319 0 0 0 -10.22756,10.91983 2.153,2.153 0 0 1 -1.97351,0.954 c -6.50716,0.4083 -13.008,0.91717 -19.51106,1.38987 l -3.01442,0.02461 a 4.089,4.089 0 0 1 -4.11069,-1.12072 13.416,13.416 0 0 0 -9.18717,-9.02368 2.73921,2.73921 0 0 1 -0.46241,-2.34793 c 0.508,-3.1582 0.87671,-6.34093 1.4613,-9.4841 a 100.855,100.855 0 0 1 7.06185,-23.17373 c 0.81,-1.79508 0.501,-3.15107 -1.26964,-3.98123 -1.7662,-0.828 -2.84018,0.18824 -3.60311,1.66608 -0.32042,0.62059 -0.57644,1.27488 -0.85091,1.91845 a 105.73615,105.73615 0 0 0 -8.01132,32.75876 4.15422,4.15422 0 0 1 -0.83744,2.45674 13.414,13.414 0 0 0 -9.81512,8.90526 c -2.1912,1.22112 -5.08352,0.55362 -7.79131,0.50751 -0.50107,-0.0084 -1.00154,-0.067 -1.50171,-0.10941 A 2.626,2.626 0 1 0 149.5,56.486 c 2.59986,0.19488 5.19421,0.47252 7.796,0.63089 a 2.38878,2.38878 0 0 1 1.475,0.48043 13.39479,13.39479 0 0 0 11.3648,10.65456 2.37248,2.37248 0 0 1 0.71559,1.60637 117.272,117.272 0 0 0 4.72321,20.7214 2.29487,2.29487 0 0 1 -0.97414,3.09578 q -0.0581,0.03025 -0.11777,0.05717 a 15.23535,15.23535 0 0 0 -6.65319,9.30422 c -0.41191,1.80184 -1.19875,2.18092 -2.87739,2.10437 -6.81524,-0.31073 -13.61478,-0.78016 -20.40231,-1.47305 a 2.78727,2.78727 0 0 1 -2.38207,-1.1497 13.37,13.37 0 0 0 -14.44665,-12.19866 q -0.11729,0.0099 -0.2344,0.02185 c -0.84377,-0.39193 -1.20531,-1.16308 -1.53543,-2.32153 a 152.38833,152.38833 0 0 1 -4.42906,-20.49525 c -0.328,-2.32352 -0.70685,-4.53219 0.36268,-6.1131 a 12.98806,12.98806 0 0 0 7.37564,-6.03867 38.40248,38.40248 0 0 1 8.085,-0.22687 c 1.61176,0.05976 2.78625,-0.48907 3.08325,-2.108 0.33574,-1.82946 -0.77552,-2.83727 -2.43213,-3.1817 a 27.95758,27.95758 0 0 0 -4.76867,-0.639 c -1.21,-0.03859 -1.96442,-0.33945 -2.38317,-1.17758 a 12.80686,12.80686 0 0 0 -1.1435,-4.3463 12.16424,12.16424 0 0 0 -6.825,-6.87851 2.12431,2.12431 0 0 1 -1.48828,-2.6097 q 0.0197,-0.072 0.0444,-0.14242 a 115.91728,115.91728 0 0 1 2.97273,-13.76423 106.27327,106.27327 0 0 1 4.82947,-13.53117 2.47927,2.47927 0 0 0 -1.19017,-3.53486 2.44439,2.44439 0 0 0 -3.54763,1.16008 21.56707,21.56707 0 0 0 -1.40017,2.98285 113.60162,113.60162 0 0 0 -7.10119,26.275 c -0.23356,1.48374 -0.61389,2.18691 -2.16042,2.58526 a 10.84647,10.84647 0 0 0 -7.05332,5.241 c -1.12982,2.09019 -2.41833,1.85671 -4.16676,1.28209 -3.89866,-1.28132 -7.80873,-2.53469 -11.74982,-3.67685 -1.56058,-0.4522 -3.3386,-0.70128 -3.989,1.41816 -0.63662,2.07469 0.50536,3.16539 2.40651,3.74106 4.40324,1.33328 8.77107,2.79072 13.20553,4.00849 a 2.38026,2.38026 0 0 1 2.10624,2.29616 12.52492,12.52492 0 0 0 7.02533,9.79627 12.83911,12.83911 0 0 0 2.65138,1.13376 3.72833,3.72833 0 0 1 1.55758,3.28029 109.40373,109.40373 0 0 0 4.54987,23.20364 8.4213,8.4213 0 0 1 0.56855,4.923 13.43058,13.43058 0 0 0 -4.47212,5.7136 2.84711,2.84711 0 0 1 -2.03568,0.07255 238.39481,238.39481 0 0 1 -23.12136,-6.45486 c -1.85572,-0.62677 -3.687,-0.99709 -4.43325,1.34794 -0.72332,2.27343 0.84327,3.12758 2.757,3.78333 a 229.153,229.153 0 0 0 23.1108,6.485 c 0.99468,0.22808 2.10786,0.17586 2.7925,1.14541 a 13.39148,13.39148 0 0 0 13.30612,12.043 c 0.36278,0 0.71912,-0.026 1.07466,-0.0545 a 1.86011,1.86011 0 0 1 1.23134,1.35489 114.27226,114.27226 0 0 1 5.82964,25.066 2.83249,2.83249 0 0 1 -0.36673,2.19978 13.414,13.414 0 0 0 -9.11892,7.61187 c -1.91169,1.06139 -4.29864,0.26914 -6.66289,-0.19438 -1.4715,-0.28852 -2.92113,-0.6867 -4.39064,-0.98654 A 193.75863,193.75863 0 0 1 90.71251,144.9424 c -1.66534,-0.5872 -3.05882,-0.38687 -3.75889,1.29212 -0.752,1.80374 0.10056,3.08883 1.83245,3.81572 0.55278,0.232 1.14225,0.376 1.712,0.56909 a 224.75333,224.75333 0 0 0 33.44888,8.4154 3.82193,3.82193 0 0 1 2.53451,1.23716 13.392,13.392 0 0 0 8.70918,10.86685 c 0.86719,1.02632 0.80862,2.307 0.40555,4.02633 a 155.73,155.73 0 0 1 -4.54738,17.38563 c -0.56528,1.57121 -0.60078,3.29255 1.42708,3.994 2.15314,0.74483 3.11507,-0.63766 3.77527,-2.37984 0.17671,-0.46639 0.38524,-0.92343 0.52551,-1.40041 a 125.98693,125.98693 0 0 0 4.42965,-18.965 3.44342,3.44342 0 0 1 0.74159,-2.04724 13.39745,13.39745 0 0 0 10.22927,-8.30379 2.63261,2.63261 0 0 1 2.29856,-0.65661 232.89192,232.89192 0 0 0 24.95765,0.97994 2.54046,2.54046 0 0 1 1.82551,0.54094 13.40712,13.40712 0 0 0 8.53778,9.36407 2.11354,2.11354 0 0 1 0.174,1.77295 142.534,142.534 0 0 1 -4.27753,16.53174 c -0.64949,1.82517 -1.15442,3.65018 1.17388,4.51591 2.25167,0.83735 3.19695,-0.63886 3.8666,-2.56315 a 107.94159,107.94159 0 0 0 4.40478,-17.098 3.98534,3.98534 0 0 1 1.19009,-2.57566 13.31733,13.31733 0 0 0 6.41165,-2.89262 8.68614,8.68614 0 0 0 1.19687,-1.13907 13.3412,13.3412 0 0 0 3.34391,-6.3169 c 0.0401,-0.18469 0.0599,-0.37615 0.0927,-0.56343 l 7.55287,-1.56536 a 2.47194,2.47194 0 0 0 2.13459,-2.76848 l -0.007,-0.0513 a 2.28346,2.28346 0 0 0 -2.57936,-2.32359 c -1.8045,0.0459 -3.61151,0.29152 -5.397,0.3668 -1.48572,0.0627 -1.7026,0.15648 -2.236,-0.313 a 13.41063,13.41063 0 0 0 -9.10693,-8.5124 2.00138,2.00138 0 0 1 -0.64468,-1.46592 107.12268,107.12268 0 0 0 -3.79534,-21.811 c -0.32732,-1.1035 0.12989,-1.60276 0.98508,-2.17389 a 16.88793,16.88793 0 0 0 7.51745,-11.129 1.909,1.909 0 0 1 1.93645,-1.88113 q 0.0778,0.001 0.15533,0.009 9.29362,-0.71277 18.55767,-1.78771 a 3.479,3.479 0 0 1 2.74886,0.53522 13.2997,13.2997 0 0 0 13.58485,7.67789 2.95737,2.95737 0 0 1 1.18031,1.72507 147.30588,147.30588 0 0 1 5.45337,21.48138 1.66636,1.66636 0 0 1 -0.28929,1.5111 13.39963,13.39963 0 0 0 -9.55081,11.50031 c -1.45974,1.74614 -3.812,2.0198 -6.36569,2.29615 -0.89814,0.0971 -1.80331,0.16051 -2.69063,0.32016 -1.78429,0.32093 -3.02617,1.18726 -2.71647,3.23167 0.2952,1.949 1.74614,2.30927 3.377,2.11121 2.48365,-0.30155 4.96592,-0.65369 7.42313,-1.11858 a 3.08425,3.08425 0 0 1 2.17852,0.14422 13.42672,13.42672 0 0 0 8.19807,7.13144 3.95478,3.95478 0 0 1 0.32924,3.30661 131.73048,131.73048 0 0 1 -5.5797,23.28374 2.45772,2.45772 0 0 0 1.50715,3.42 2.5362,2.5362 0 0 0 3.59463,-1.65317 c 0.15742,-0.3668 0.32556,-0.73129 0.45023,-1.1095 a 122.30491,122.30491 0 0 0 5.43591,-24.24437 3.94467,3.94467 0 0 1 1.12844,-2.7613 13.38181,13.38181 0 0 0 10.37367,-12.31294 2.962,2.962 0 0 1 2.02675,-1.28749 c 3.6807,-0.95385 7.34031,-1.99666 10.97883,-3.10075 a 2.618,2.618 0 0 0 1.99162,-3.70713 z m -69.67337,15.65454 c 0.0213,-0.30129 0.0508,-0.60053 0.0508,-0.90731 a 7.61359,7.61359 0 0 1 -0.0508,0.90731 z m -26.22581,-4.36817 c 0,0 -4.4745,0.53254 -5.989,0.615 -6.80313,0.37049 -13.60645,-0.39629 -20.414,-0.66338 a 2.33556,2.33556 0 0 1 -1.92859,-0.7156 13.389,13.389 0 0 0 -9.91726,-11.20381 2.8369,2.8369 0 0 1 -0.75359,-1.92978 103.53776,103.53776 0 0 0 -5.76833,-26.25389 3.68592,3.68592 0 0 1 -0.20218,-2.73953 13.46221,13.46221 0 0 0 4.39639,-4.97317 c 1.68653,-1.01466 3.85767,-0.80948 6.24377,-0.52431 5.95769,0.712 11.97764,0.937 17.97771,1.2436 1.50091,0.0767 2.2839,0.41345 2.72331,2.00231 2.33671,8.44971 9.14515,13.51505 17.7632,13.03935 2.11669,-0.11686 2.66227,0.52671 3.11121,2.382 a 125.25478,125.25478 0 0 1 3.08948,18.28281 c 0.0797,0.88708 0.031,1.44963 -0.37444,1.86384 a 13.40262,13.40262 0 0 0 -9.95768,9.57456 z m 42.67729,-55.69309 a 1.74016,1.74016 0 0 1 -1.40873,0.64752 c -6.08051,0.56116 -12.15374,1.20465 -18.22387,1.87027 -1.68559,0.18486 -2.51076,-0.12938 -3.16137,-2.04416 a 17.08618,17.08618 0 0 0 -17.54558,-11.8166 2.75261,2.75261 0 0 1 -3.24357,-2.1524 q -0.0238,-0.1179 -0.0373,-0.23757 a 177.36367,177.36367 0 0 1 -4.1292,-18.08661 2.82176,2.82176 0 0 1 0.46249,-2.62787 13.41368,13.41368 0 0 0 8.05952,-8.89944 2.29074,2.29074 0 0 1 2.21134,-1.01586 235.66586,235.66586 0 0 0 24.04271,-1.31407 2.55672,2.55672 0 0 1 3.09706,0.83966 13.40358,13.40358 0 0 0 10.12904,8.12274 2.57682,2.57682 0 0 1 0.74313,1.8299 109.32245,109.32245 0 0 0 4.72932,22.5256 3.047,3.047 0 0 1 0.0472,2.28278 13.36769,13.36769 0 0 0 -5.77217,10.07606 z"
       id="path3617" /><path
       class="cls-2"
       d="m 184.57124,95.94139 a 12.03883,12.03883 0 0 0 -12.10959,11.96769 q -7.6e-4,0.12768 0.001,0.25534 a 11.89114,11.89114 0 0 0 11.834,11.948 q 0.0867,4.2e-4 0.1734,-4.2e-4 a 11.7382,11.7382 0 0 0 12.18291,-11.276 q 0.014,-0.362 0.006,-0.72429 a 11.904,11.904 0 0 0 -11.6333,-12.16884 q -0.22718,-0.005 -0.45442,-0.0015 z"
       id="path3619" /><path
       class="cls-3"
       d="m 237.34123,95.2654 a 7.40434,7.40434 0 0 0 -7.61723,7.18515 q -0.005,0.18025 -0.002,0.3606 a 7.59606,7.59606 0 0 0 15.19171,0.111 q 2.3e-4,-0.0322 1.9e-4,-0.0644 a 7.42539,7.42539 0 0 0 -7.25505,-7.5919 q -0.15892,-0.0036 -0.31788,-4.4e-4 z m 2.69719,7.95191 a 2.44159,2.44159 0 0 1 -2.84953,2.36062 2.47225,2.47225 0 0 1 -2.564,-2.94932 c 0.10536,-1.74569 1.41156,-2.43283 2.719,-3.07469 1.68351,0.81772 2.90584,1.76011 2.69447,3.66339 z"
       id="path3621" /><path
       class="cls-4"
       d="m 139.85005,150.87582 a 7.79192,7.79192 0 0 0 -7.73334,7.61159 7.61859,7.61859 0 1 0 7.73327,-7.61159 z m -0.0314,10.61391 c -1.99126,0.0447 -2.8262,-1.11841 -2.84469,-3.08491 a 2.57891,2.57891 0 0 1 2.90216,-2.87516 2.98169,2.98169 0 0 1 -0.0575,5.96 z"
       id="path3623" /><path
       class="cls-5"
       d="m 128.76079,96.05773 a 7.65244,7.65244 0 0 0 -7.48308,7.80511 7.83148,7.83148 0 0 0 7.72966,7.62567 7.74371,7.74371 0 0 0 7.44783,-7.8726 7.59469,7.59469 0 0 0 -7.63048,-7.55875 z m 0.0268,10.70306 c -1.84362,-0.0204 -2.60379,-1.1792 -2.68,-2.86676 0.015,-1.9164 0.82062,-3.118 2.826,-3.0801 1.82518,0.0344 2.64211,1.13249 2.66073,2.896 0.02,1.896 -0.81524,3.07283 -2.80675,3.05078 z"
       id="path3625" /><path
       class="cls-4"
       d="m 125.26408,48.70728 a 7.67013,7.67013 0 1 0 -7.69668,7.64348 q 0.0324,10e-5 0.0648,-5e-5 a 7.61524,7.61524 0 0 0 7.632,-7.59849 q 1e-5,-0.02249 -8e-5,-0.04494 z m -7.66648,2.79808 c -1.7564,-0.09225 -2.84764,-0.84078 -2.87739,-2.65464 -0.0326,-1.98294 1.15143,-2.7943 2.9971,-2.81051 1.74732,0.04682 3.0231,0.76815 2.91041,2.60653 a 2.66174,2.66174 0 0 1 -3.03012,2.85862 z"
       id="path3627" /><path
       class="cls-6"
       d="m 179.75782,55.2174 a 7.71466,7.71466 0 0 0 -15.42618,-0.31086 q -0.003,0.17157 7.1e-4,0.34317 a 7.71488,7.71488 0 0 0 15.42547,-0.03231 z m -10.711,-0.17243 a 2.83256,2.83256 0 0 1 2.78735,-2.87707 q 0.0352,-5.6e-4 0.0703,-2.4e-4 a 2.70244,2.70244 0 0 1 2.99752,2.96826 c 0.003,1.74012 -1.10451,2.66819 -2.91795,2.97094 -1.6302,-0.312 -2.95439,-1.24568 -2.93724,-3.06184 z"
       id="path3629" /><path
       class="cls-7"
       d="m 226.25145,59.6891 a 7.68368,7.68368 0 1 0 -7.431,-7.68277 7.68277,7.68277 0 0 0 7.431,7.68277 z m -2.94271,-7.97933 a 3.04952,3.04952 0 0 1 3.43848,-2.60308 l 0.0658,0.0098 c 1.86385,0.2 2.49,1.44432 2.368,3.27395 -0.347,1.55269 -1.24778,2.85312 -3.02418,2.53134 -1.57677,-0.2857 -3.2573,-1.19068 -2.84814,-3.21205 z"
       id="path3631" /><path
       class="cls-8"
       d="m 248.9094,145.99628 a 7.70395,7.70395 0 1 0 7.61218,7.79461 q 6.5e-4,-0.0525 5.3e-4,-0.10507 a 7.72488,7.72488 0 0 0 -7.61271,-7.68954 z m -0.0604,10.66733 c -2.03773,0.0521 -2.80451,-1.22507 -2.78385,-3.32436 a 2.4715,2.4715 0 0 1 2.77287,-2.61475 2.97417,2.97417 0 1 1 0.011,5.93913 z"
       id="path3633" /><path
       class="cls-5"
       d="m 186.49956,161.06668 a 7.97991,7.97991 0 0 0 7.73909,7.6735 7.85674,7.85674 0 0 0 7.69822,-7.67753 7.585,7.585 0 0 0 -7.6379,-7.5317 l -0.0611,6.6e-4 a 7.69323,7.69323 0 0 0 -7.73835,7.53509 z m 7.83076,-2.89231 a 2.69743,2.69743 0 0 1 2.85655,2.86668 c -0.12175,1.74132 -0.96846,3.07211 -2.62935,2.91091 -2.24128,-0.0773 -3.28783,-0.94615 -3.29324,-2.77956 a 2.83252,2.83252 0 0 1 3.066,-2.998 z"
       id="path3635" /><path
       class="cls-9"
       d="m 237.34389,99.55391 c -1.30746,0.64186 -2.61373,1.32893 -2.719,3.07468 a 2.47226,2.47226 0 0 0 2.564,2.94933 2.4416,2.4416 0 0 0 2.84952,-2.36063 c 0.21135,-1.90329 -1.01098,-2.84567 -2.69452,-3.66338 z"
       id="path3637" /><path
       class="cls-10"
       d="m 139.87619,155.52968 a 2.57891,2.57891 0 0 0 -2.90216,2.87516 c 0.0184,1.96648 0.85338,3.12956 2.84469,3.08491 a 2.98169,2.98169 0 0 0 0.0575,-5.96 z"
       id="path3639" /><path
       class="cls-11"
       d="m 128.93363,100.81392 c -2.0054,-0.0379 -2.811,1.16368 -2.826,3.0801 0.0762,1.68755 0.83639,2.84634 2.68,2.86676 1.99151,0.022 2.82673,-1.15473 2.80677,-3.05085 -0.0187,-1.76357 -0.83559,-2.86166 -2.66077,-2.89601 z"
       id="path3641" /><path
       class="cls-12"
       d="m 117.7173,46.04021 c -1.84566,0.01621 -3.02967,0.82757 -2.99709,2.81051 0.0298,1.81386 1.121,2.56233 2.87739,2.65464 a 2.6617,2.6617 0 0 0 3.03012,-2.85861 c 0.11274,-1.83838 -1.1631,-2.55975 -2.91042,-2.60654 z"
       id="path3643" /><path
       class="cls-13"
       d="m 174.902,55.13592 a 2.7024,2.7024 0 0 0 -2.99752,-2.96818 2.83256,2.83256 0 0 0 -2.85791,2.807 q -3.2e-4,0.03516 2.4e-4,0.07032 c -0.0171,1.81616 1.307,2.74979 2.93724,3.06181 1.81347,-0.30278 2.92095,-1.23087 2.91795,-2.97095 z"
       id="path3645" /><path
       class="cls-14"
       d="m 226.15688,54.92181 c 1.77639,0.32178 2.67719,-0.97866 3.02418,-2.53134 0.122,-1.82964 -0.50415,-3.07391 -2.368,-3.27395 a 3.04951,3.04951 0 0 0 -3.49448,2.5274 l -0.01,0.06583 c -0.40916,2.02139 1.27137,2.92637 2.84814,3.21206 z"
       id="path3647" /><path
       class="cls-15"
       d="m 248.83794,150.72453 a 2.47139,2.47139 0 0 0 -2.77288,2.61474 c -0.0207,2.09929 0.74612,3.37641 2.78385,3.32436 a 2.97418,2.97418 0 1 0 -0.011,-5.93913 z"
       id="path3649" /><path
       class="cls-16"
       d="m 194.55753,163.952 c 1.66089,0.1612 2.50755,-1.16959 2.62935,-2.91091 a 2.69743,2.69743 0 0 0 -2.85655,-2.86668 2.83253,2.83253 0 0 0 -3.066,2.998 c 0.005,1.8334 1.05189,2.70221 3.2932,2.77959 z"
       id="path3651" /><path
       class="cls-1"
       d="m 11.7052,223.98774 a 17.5528,17.5528 0 0 1 13.26852,-5.46036 q 10.77653,0 15.75959,7.32072 a 16.20367,16.20367 0 0 1 2.95455,8.25044 H 34.669 a 12.71882,12.71882 0 0 0 -2.2091,-4.80016 q -2.4098,-2.88039 -7.14243,-2.88039 a 8.74369,8.74369 0 0 0 -7.60271,4.06532 q -2.78223,4.06554 -2.78225,11.50582 0,7.44143 2.93612,11.14556 a 9.11936,9.11936 0 0 0 7.46124,3.706 8.36959,8.36959 0 0 0 7.07559,-3.18076 14.12428,14.12428 0 0 0 2.234,-5.1305 h 8.96085 a 20.08693,20.08693 0 0 1 -5.92431,11.76105 17.00228,17.00228 0 0 1 -12.21072,4.53064 q -9.212,0 -14.4848,-6.121 Q 5.70829,252.551 5.70806,241.839 q 7e-5,-11.5802 5.99714,-17.85119 z m 61.5028,7.08161 a 9.41417,9.41417 0 0 1 3.95107,3.213 8.67749,8.67749 0 0 1 1.60327,3.76909 47.76,47.76 0 0 1 0.29166,6.32056 v 19.219 h -8.52089 v -19.91429 a 9.00474,9.00474 0 0 0 -0.87213,-4.2648 q -1.134,-2.28261 -4.30213,-2.28329 a 5.84455,5.84455 0 0 0 -4.98539,2.26808 10.62768,10.62768 0 0 0 -1.7,6.47256 V 263.591 h -8.34533 v -44.07351 h 8.34535 v 15.60107 a 10.304,10.304 0 0 1 4.18373,-3.975 11.54433,11.54433 0 0 1 5.00057,-1.12506 13.23,13.23 0 0 1 5.35024,1.05088 z m 26.76969,12.63 a 12.94164,12.94164 0 0 0 3.33326,-0.75 2.56642,2.56642 0 0 0 1.79954,-2.43025 2.89206,2.89206 0 0 0 -1.3803,-2.77534 8.54389,8.54389 0 0 0 -4.0515,-0.76478 q -2.99786,0 -4.24454,1.50009 a 6.27168,6.27168 0 0 0 -1.18772,3.00015 h -8.05232 a 12.70582,12.70582 0 0 1 2.35239,-7.05027 q 3.32336,-4.32057 11.41139,-4.32056 a 19.94306,19.94306 0 0 1 9.35154,2.13033 q 4.08837,2.13055 4.08836,8.04035 v 15.00172 q 0,1.55905 0.058,3.77969 a 4.84688,4.84688 0 0 0 0.49849,2.28053 2.99961,2.99961 0 0 0 1.22918,0.98961 v 1.2605 h -9.07695 a 9.67292,9.67292 0 0 1 -0.52706,-1.86036 q -0.1465,-0.86934 -0.234,-1.98014 a 17.34108,17.34108 0 0 1 -4.00636,3.27014 11.8818,11.8818 0 0 1 -6.12655,1.59038 10.41186,10.41186 0 0 1 -7.2014,-2.53576 9.12479,9.12479 0 0 1 -2.84206,-7.18538 q 0,-6.03027 4.57211,-8.7305 a 20.05551,20.05551 0 0 1 7.37508,-2.10038 z M 105.081,247.69 a 9.15316,9.15316 0 0 1 -1.618,0.82465 13.38926,13.38926 0 0 1 -2.2409,0.5851 l -1.9,0.36028 a 12.2682,12.2682 0 0 0 -3.83589,1.17022 3.92488,3.92488 0 0 0 -1.97185,3.62948 3.84143,3.84143 0 0 0 1.2043,3.166 4.50746,4.50746 0 0 0 2.92875,0.97487 8.57958,8.57958 0 0 0 5.04019,-1.61986 q 2.30467,-1.62126 2.3934,-5.91094 z m 42.7081,11.9002 q -4.04136,5.11115 -12.26969,5.11021 -8.22924,0 -12.26969,-5.11021 a 20.68614,20.68614 0 0 1 0,-24.56566 q 4.04136,-5.18577 12.26969,-5.18624 8.22786,0 12.26969,5.18624 a 20.68993,20.68993 0 0 1 0,24.56566 z m -6.67664,-4.726 q 1.96125,-2.66616 1.96171,-7.57964 0,-4.91351 -1.96171,-7.56444 a 7.30283,7.30283 0 0 0 -11.25981,0 q -1.97646,2.65092 -1.97646,7.56444 0,4.91352 1.97646,7.57964 a 7.27647,7.27647 0 0 0 11.25981,0 z m 23.60687,-1.586 a 5.77954,5.77954 0 0 0 1.14718,3.23973 q 1.56044,1.71111 5.7672,1.71016 a 8.64132,8.64132 0 0 0 3.928,-0.75 2.40434,2.40434 0 0 0 1.45683,-2.25011 2.43993,2.43993 0 0 0 -1.1739,-2.19022 q -1.17347,-0.74918 -8.7305,-2.58 -5.44008,-1.37939 -7.6653,-3.45028 a 7.57411,7.57411 0 0 1 -2.22616,-5.88053 10.29889,10.29889 0 0 1 3.47745,-7.78557 q 3.47751,-3.255 9.78732,-3.25494 a 17.64718,17.64718 0 0 1 9.757,2.445 q 3.77047,2.44566 4.32885,8.44531 h -8.34626 a 5.12512,5.12512 0 0 0 -0.90945,-2.60994 q -1.38075,-1.73943 -4.69834,-1.74011 a 6.64254,6.64254 0 0 0 -3.89115,0.86983 2.51643,2.51643 0 0 0 -1.15916,2.04049 2.23927,2.23927 0 0 0 1.23287,2.12988 q 1.23287,0.69038 8.71392,2.37036 a 15.83173,15.83173 0 0 1 7.47644,3.63041 8.34764,8.34764 0 0 1 2.45928,6.15052 10.03276,10.03276 0 0 1 -3.53551,7.93531 q -3.53688,3.07524 -10.93,3.07479 -7.54094,0 -11.1345,-3.25447 a 10.69651,10.69651 0 0 1 -3.59447,-8.2956 z m 73.98414,-33.91055 h 13.29936 V 263.591 h -8.61223 v -29.91262 q 0,-1.28955 0.0302,-3.61522 0.0297,-2.32406 0.0293,-3.58526 l -8.38186,37.11317 h -8.98234 l -8.32141,-37.11317 q 0,1.26049 0.0302,3.58526 0.0298,2.32545 0.0302,3.61522 V 263.591 h -8.61224 v -44.22328 h 13.44854 l 8.05138,34.77228 z m 42.92386,12.18308 a 12.72666,12.72666 0 0 1 5.301,4.83795 16.7085,16.7085 0 0 1 2.44417,6.76046 44.57451,44.57451 0 0 1 0.26476,6.49051 h -22.34274 q 0.18732,4.92041 3.2084,6.90055 a 7.76417,7.76417 0 0 0 4.42249,1.2301 6.51133,6.51133 0 0 0 4.45351,-1.50008 7.13644,7.13644 0 0 0 1.6507,-2.25011 h 8.18879 a 10.91971,10.91971 0 0 1 -2.97373,5.91 q -4.12184,4.77114 -11.54064,4.77021 a 16.08514,16.08514 0 0 1 -10.80474,-4.02294 q -4.68243,-4.02341 -4.6811,-13.09254 0,-8.49809 4.22591,-13.03216 a 14.3086,14.3086 0 0 1 10.96948,-4.53433 16.53753,16.53753 0 0 1 7.21378,1.53237 z m -11.99848,7.38662 a 9.16045,9.16045 0 0 0 -2.13687,5.06184 h 13.81832 a 7.34953,7.34953 0 0 0 -2.13687,-5.16736 6.76622,6.76622 0 0 0 -4.75726,-1.76314 6.14113,6.14113 0 0 0 -4.78735,1.86865 z m 32.89688,14.3957 a 5.77957,5.77957 0 0 0 1.14718,3.23974 q 1.56042,1.71108 5.76719,1.71016 a 8.64149,8.64149 0 0 0 3.928,-0.75 2.40435,2.40435 0 0 0 1.45677,-2.25013 2.43993,2.43993 0 0 0 -1.17389,-2.19023 q -1.17343,-0.74918 -8.7305,-2.58 -5.4401,-1.37937 -7.66531,-3.45028 a 7.57411,7.57411 0 0 1 -2.22616,-5.88053 10.29892,10.29892 0 0 1 3.47746,-7.78559 q 3.4774,-3.25491 9.78731,-3.25493 a 17.64717,17.64717 0 0 1 9.757,2.445 q 3.77048,2.44566 4.32885,8.44533 h -8.34626 a 5.12512,5.12512 0 0 0 -0.90945,-2.60994 q -1.38075,-1.73941 -4.69834,-1.74012 a 6.64264,6.64264 0 0 0 -3.89115,0.86984 2.5164,2.5164 0 0 0 -1.15915,2.04049 2.23929,2.23929 0 0 0 1.23283,2.12988 q 1.23287,0.69037 8.71392,2.37036 a 15.83164,15.83164 0 0 1 7.47644,3.63041 8.34787,8.34787 0 0 1 2.45928,6.15052 10.033,10.033 0 0 1 -3.5355,7.93531 q -3.53689,3.07525 -10.92995,3.07479 -7.54093,0 -11.13449,-3.25446 a 10.6965,10.6965 0 0 1 -3.59448,-8.2956 z m 50.05488,-22.26377 a 9.40866,9.40866 0 0 1 3.95015,3.213 8.67691,8.67691 0 0 1 1.60328,3.76909 47.74149,47.74149 0 0 1 0.29209,6.32051 V 263.591 h -8.52133 v -19.91429 a 8.99955,8.99955 0 0 0 -0.87166,-4.2648 q -1.13335,-2.28261 -4.30214,-2.28329 a 5.84368,5.84368 0 0 0 -4.98491,2.26808 10.62144,10.62144 0 0 0 -1.7,6.47256 V 263.591 h -8.34629 v -44.07351 h 8.34627 v 15.60107 a 10.2975,10.2975 0 0 1 4.18326,-3.975 11.54431,11.54431 0 0 1 5.00058,-1.12506 13.23355,13.23355 0 0 1 5.35071,1.05085 z"
       id="path3653" /></g></svg>
