<?xml version="1.0" encoding="UTF-8" standalone="no"?>
<svg
   version="1.1"
   id="Calque_1"
   x="0"
   y="0"
   viewBox="0 0 300 300"
   style="enable-background:new 0 0 300 300"
   xml:space="preserve"
   sodipodi:docname="gpm.svg"
   inkscape:version="1.1.2 (b8e25be8, 2022-02-05)"
   xmlns:inkscape="http://www.inkscape.org/namespaces/inkscape"
   xmlns:sodipodi="http://sodipodi.sourceforge.net/DTD/sodipodi-0.dtd"
   xmlns="http://www.w3.org/2000/svg"
   xmlns:svg="http://www.w3.org/2000/svg"><defs
     id="defs173"><style
       id="style3613">.cls-1{fill:#172d73;}.cls-2{fill:#fefefe;}.cls-3{fill:#4ccaf8;}.cls-4{fill:#f488a5;}.cls-5{fill:#4bcaf8;}.cls-6{fill:#4bcbf9;}.cls-7{fill:#f589a5;}.cls-8{fill:#f489a5;}.cls-9{fill:#10a5f5;}.cls-10{fill:#ef5e7f;}.cls-11{fill:#13a5f6;}.cls-12{fill:#ef5e80;}.cls-13{fill:#12a5f5;}.cls-14{fill:#f05f7f;}.cls-15{fill:#ef5f80;}.cls-16{fill:#13a6f6;}</style><style
       id="style318">.d{fill:#fc2838;}.e,.f{fill:#fff;}.g,.h{fill:#ffdb0c;}.i,.j{fill:#ffae0c;}.k{fill:#c91138;}.l{fill:#949494;}.m{fill:#808081;}.n{fill:#292d46;}.o{fill:#615a5e;}.p{fill:#77807d;}.h,.j{mix-blend-mode:multiply;opacity:.77;}.q,.f{opacity:.3;}.r{opacity:.3;}.s{isolation:isolate;}.t{fill:none;stroke:#000;stroke-linecap:round;stroke-linejoin:round;stroke-width:6px;}</style></defs><sodipodi:namedview
     id="namedview171"
     pagecolor="#ffffff"
     bordercolor="#666666"
     borderopacity="1.0"
     inkscape:pageshadow="2"
     inkscape:pageopacity="0.0"
     inkscape:pagecheckerboard="0"
     showgrid="false"
     inkscape:zoom="2.3666667"
     inkscape:cx="149.78873"
     inkscape:cy="150"
     inkscape:window-width="1312"
     inkscape:window-height="936"
     inkscape:window-x="0"
     inkscape:window-y="25"
     inkscape:window-maximized="0"
     inkscape:current-layer="Calque_1" /><style
     id="style108">.st1{fill:#f6d2a2}.st2{fill:#c6b198}.st3{fill:#37abc8}.st4{fill:none}.st5{fill:#077e91}.st6{fill:#fff}.st7{fill:#ef9325}.st8{fill:#e5e5e5}.st9{fill:#d2e261}.st10{fill:#9b9b9b}.st11{fill:#960000}.st12{fill:#595959}</style><g
     id="g3158"
     transform="translate(-21.04 -84.875) scale(.63926)"><g
       id="g3184" /><g
       id="g3194" /><g
       id="g3200" /><g
       id="g3208" /></g><g
     id="g3212"
     transform="translate(-21.04 -84.875) scale(.63926)" /><g
     id="g3220"
     transform="translate(-21.04 -84.875) scale(.63926)" /><g
     id="g3228"
     transform="translate(-21.04 -84.875) scale(.63926)" /><g
     id="g3238"
     transform="translate(-21.04 -84.875) scale(.63926)" /><g
     id="g3248"
     transform="translate(-21.04 -84.875) scale(.63926)"><g
       id="g3250" /><g
       id="g3256" /></g><g
     id="g3268"
     transform="translate(-21.04 -84.875) scale(.63926)" /><g
     class="s"
     id="g401"
     transform="translate(105.68192,54.763571)"><g
       id="a" /><g
       id="b"><g
         id="c"><g
           id="g397"><path
             class="t"
             d="m 46.02,3 c -6.65,6.39 -11.7,5.32 -11.7,5.32 -2.12,4.26 -8.84,5.06 -8.84,5.06 6.18,6.88 11.87,26.54 13.58,32.87 -1.78,2.1 -2.99,4.97 -3.3,8.2 H 35.5 v 1.33 h 0.19 v 0.03 C 18.33,60.45 5.53,76.46 5.53,95.5 H 3 l 1.29,2.43 0.93,2.68 v 33.47 h 0.07 c -0.04,0.73 -0.06,1.46 -0.06,2.2 0,3.48 0.29,4.25 1.14,7.46 l 28.24,30.68 c 0.24,0.06 0.48,0.11 0.72,0.17 h 21.84 l 28.12,-30.84 c 0.46,-2.42 0.71,-4.91 0.71,-7.46 0,-0.74 -0.02,-1.47 -0.06,-2.2 h 0.07 v -33.47 0 l 0.44,-0.89 0.87,-1.79 v 0 l 1.83,-2.43 H 86.58 C 86.58,76.47 73.94,60.46 56.81,55.82 v -0.03 h 0.21 V 54.46 H 56.74 C 56.41,51.03 55.06,48 53.09,45.87 54.93,39.16 60.51,20.14 66.57,13.4 c 0,0 -6.72,-0.8 -8.84,-5.06 0,0 -5.05,1.06 -11.7,-5.32"
             id="path323" /><g
             id="g395"><path
               class="d"
               d="m 45.03,48.18 h -5.45 c 0,0 -6.7,-26.61 -14.11,-34.86 0,0 6.72,-0.8 8.84,-5.06 0,0 5.05,1.06 11.7,-5.32 l -0.97,45.24 z"
               id="path325" /><path
               class="k"
               d="m 46.97,48.18 h 5.45 c 0,0 6.7,-26.61 14.11,-34.86 0,0 -6.72,-0.8 -8.84,-5.06 0,0 -5.05,1.06 -11.7,-5.32 l 0.97,45.24 z"
               id="path327" /><path
               class="e"
               d="M 40.93,45.12 C 39.56,33.73 37.84,22.34 35.31,11.14 c 3.19,11.08 5.57,22.35 7.6,33.7 z"
               id="path329" /><path
               class="e"
               d="m 49.55,44.84 c 2.04,-11.35 4.42,-22.63 7.6,-33.7 -2.53,11.2 -4.25,22.59 -5.62,33.98 z"
               id="path331" /><g
               id="g363"><path
                 class="m"
                 d="M 85.98,99.61 H 61.19 c -4.53,-1.81 -9.47,-2.82 -14.64,-2.82 -0.32,0 -0.63,0.04 -0.95,0.05 v 5.69 c 0.21,-0.01 0.42,-0.03 0.63,-0.03 6.03,0 10.92,4.89 10.92,10.92 v 61.11 l 28.12,-30.84 c 0.46,-2.42 0.71,-4.91 0.71,-7.46 0,-0.74 -0.02,-1.47 -0.06,-2.2 h 0.07 V 99.62 Z"
                 id="path333" /><path
                 class="l"
                 d="m 35.31,113.42 c 0,-5.82 4.55,-10.56 10.29,-10.89 v -5.69 c -0.32,-0.01 -0.63,-0.05 -0.95,-0.05 -5.18,0 -10.12,1.01 -14.64,2.82 H 5.21 v 34.41 h 0.07 c -0.04,0.73 -0.06,1.46 -0.06,2.2 0,3.48 0.29,4.25 1.14,7.46 l 28.24,30.68 c 0.24,0.06 0.48,0.11 0.72,0.17 v -61.11 z"
                 id="path335" /><path
                 class="n"
                 d="m 21.6,91.07 h 49.67 c 2.97,0 5.38,2.41 5.38,5.38 v 12.1 c 0,2.97 -2.41,5.38 -5.38,5.38 H 21.6 c -2.97,0 -5.38,-2.41 -5.38,-5.38 v -12.1 c 0,-2.97 2.41,-5.38 5.38,-5.38 z"
                 id="path337" /><path
                 class="o"
                 d="m 57.15,174.53 v -61.11 c 0,-6.03 -4.89,-10.92 -10.92,-10.92 -6.03,0 -10.92,4.89 -10.92,10.92 v 61.11 z"
                 id="path339" /><path
                 class="n"
                 d="m 57.15,168.37 v -54.96 c 0,-6.03 -4.89,-10.92 -10.92,-10.92 -6.03,0 -10.92,4.89 -10.92,10.92 v 54.96 z"
                 id="path341" /><g
                 id="g355"><path
                   class="l"
                   d="M 46.03,54.39 C 23.65,54.39 5.51,72.77 5.51,95.44 H 86.56 C 86.56,72.77 68.42,54.39 46.04,54.39 Z"
                   id="path343" /><path
                   class="p"
                   d="m 46.08,54.4 v 41.04 h 40.48 c 0,-22.67 -17.91,-41.05 -40.01,-41.05 -0.16,0 -0.31,0.01 -0.47,0.01 z"
                   id="path345" /><path
                   class="l"
                   d="m 46.23,42.59 c -5.84,0 -10.57,6.03 -10.57,13.46 H 56.8 c 0,-7.43 -4.73,-13.46 -10.57,-13.46 z"
                   id="path347" /><path
                   class="p"
                   d="m 46.08,42.59 v 13.46 h 10.69 c 0,-7.43 -4.73,-13.46 -10.57,-13.46 -0.04,0 -0.08,0 -0.12,0 z"
                   id="path349" /><g
                   class="q"
                   id="g353"><path
                     class="e"
                     d="m 14.14,76.57 c 10.2,-15.38 24.08,-18 24.66,-18.1"
                     id="path351" /></g></g><g
                 id="g361"><polygon
                   class="l"
                   points="46.23,101.5 39.85,101.5 37.61,128.96 46.23,135.66 "
                   id="polygon357" /><polygon
                   class="p"
                   points="46.23,101.5 52.61,101.5 54.85,128.96 46.23,135.66 "
                   id="polygon359" /></g></g><polygon
               class="f"
               points="40.58,104.23 38.77,127.79 40.58,129.16 "
               id="polygon365" /><polygon
               class="g"
               points="52.61,101.5 39.85,101.5 5.21,99.61 2.99,95.44 89.13,95.44 85.98,99.61 "
               id="polygon367" /><polygon
               class="g"
               points="46.08,95.44 26.47,95.44 40.75,92.7 46.03,92.7 "
               id="polygon369" /><polygon
               class="g"
               points="46.44,95.44 66.04,95.44 51.76,92.7 46.48,92.7 "
               id="polygon371" /><polygon
               class="i"
               points="52.61,103.45 39.85,103.45 5.21,100.55 4.28,97.87 87.3,97.87 85.98,100.55 "
               id="polygon373" /><g
               id="g385"><rect
                 class="g"
                 x="45.150002"
                 y="55.560001"
                 width="1.85"
                 height="80.089996"
                 id="rect375" /><polygon
                 class="h"
                 points="47,95.44 47,97.87 87.3,97.87 89.13,95.44 "
                 id="polygon377" /><polygon
                 class="j"
                 points="47,103.45 52.61,103.45 85.98,100.55 87.3,97.87 85.98,99.61 52.61,101.5 47,101.5 "
                 id="polygon379" /><polygon
                 class="i"
                 points="5.21,100.55 39.85,103.45 45.15,103.45 45.15,101.5 39.85,101.5 5.21,99.61 4.28,97.87 "
                 id="polygon381" /><polygon
                 class="j"
                 points="85.98,99.61 87.3,97.87 87.3,97.87 47,97.87 47,101.5 52.61,101.5 "
                 id="polygon383" /></g><polygon
               class="h"
               points="47,95.44 66.04,95.44 52.18,92.7 47.05,92.7 "
               id="polygon387" /><rect
               class="g"
               x="35.490002"
               y="54.389999"
               width="21.5"
               height="1.33"
               id="rect389" /><g
               class="r"
               id="g393"><path
                 class="e"
                 d="m 31.88,163.86 c -7.74,-6.98 -14.84,-14.57 -21.82,-22.29 -1.69,-6.5 -0.87,-13.16 -0.32,-19.75 0.32,3.23 0.51,6.46 0.67,9.7 0.08,3.17 0.63,6.31 1.45,9.35 l -0.22,-0.4 c 7.06,7.53 13.97,15.18 20.24,23.4 v 0 z"
                 id="path391" /></g></g></g></g></g></g></svg>
