<?xml version="1.0" encoding="UTF-8" standalone="no"?>
<svg
   version="1.1"
   id="Calque_1"
   x="0"
   y="0"
   viewBox="0 0 300 300"
   style="enable-background:new 0 0 300 300"
   xml:space="preserve"
   sodipodi:docname="harbor.svg"
   inkscape:version="1.1.2 (b8e25be8, 2022-02-05)"
   xmlns:inkscape="http://www.inkscape.org/namespaces/inkscape"
   xmlns:sodipodi="http://sodipodi.sourceforge.net/DTD/sodipodi-0.dtd"
   xmlns:xlink="http://www.w3.org/1999/xlink"
   xmlns="http://www.w3.org/2000/svg"
   xmlns:svg="http://www.w3.org/2000/svg"><defs
     id="defs173"><style
       id="style3613">.cls-1{fill:#172d73;}.cls-2{fill:#fefefe;}.cls-3{fill:#4ccaf8;}.cls-4{fill:#f488a5;}.cls-5{fill:#4bcaf8;}.cls-6{fill:#4bcbf9;}.cls-7{fill:#f589a5;}.cls-8{fill:#f489a5;}.cls-9{fill:#10a5f5;}.cls-10{fill:#ef5e7f;}.cls-11{fill:#13a5f6;}.cls-12{fill:#ef5e80;}.cls-13{fill:#12a5f5;}.cls-14{fill:#f05f7f;}.cls-15{fill:#ef5f80;}.cls-16{fill:#13a6f6;}</style><linearGradient
       id="linear-gradient"
       x1="264.788"
       x2="267.269"
       y1="951.959"
       y2="951.959"
       gradientTransform="matrix(30.42866 0 0 -30.42866 -7955.215 29272.28)"
       gradientUnits="userSpaceOnUse"><stop
         offset="0"
         stop-color="#60b932"
         id="stop423" /><stop
         offset=".282"
         stop-color="#60b932"
         id="stop425" /><stop
         offset="1"
         stop-color="#367c34"
         id="stop427" /></linearGradient><linearGradient
       id="linear-gradient-2"
       x1="263.774"
       x2="266.255"
       y1="955.219"
       y2="955.219"
       gradientTransform="matrix(27.2148,0,0,-27.2148,-7073.85,26157.32)"
       xlink:href="#linear-gradient" /><linearGradient
       id="linear-gradient-3"
       x1="263.278"
       x2="265.759"
       y1="953.312"
       y2="953.312"
       gradientTransform="matrix(25.74947,0,0,-25.74947,-6671.128,24800.762)"
       xlink:href="#linear-gradient" /><linearGradient
       id="linear-gradient-4"
       x1="263.769"
       x2="266.25"
       y1="952.771"
       y2="952.771"
       gradientTransform="matrix(27.09707,0,0,-27.09707,-7040.897,26090.446)"
       xlink:href="#linear-gradient" /><linearGradient
       id="linear-gradient-5"
       x1="262.733"
       x2="265.214"
       y1="953.913"
       y2="953.913"
       gradientTransform="matrix(24.40187,0,0,-24.40187,-6301.36,23511.076)"
       xlink:href="#linear-gradient" /><linearGradient
       id="linear-gradient-6"
       x1="272.14"
       x2="274.621"
       y1="954.718"
       y2="954.718"
       gradientTransform="matrix(53.111163,-39.333197,-39.333197,-53.111163,23273.038,61554.284)"
       gradientUnits="userSpaceOnUse"><stop
         offset="0"
         stop-color="#4596d8"
         id="stop434" /><stop
         offset=".2"
         stop-color="#4596d8"
         id="stop436" /><stop
         offset="1"
         stop-color="#fff"
         id="stop438" /></linearGradient><linearGradient
       id="linear-gradient-7"
       x1="270.651"
       x2="273.133"
       y1="951.955"
       y2="951.955"
       gradientTransform="matrix(76.222166,15.55607,15.55607,-76.222166,-35265.607,68510.949)"
       gradientUnits="userSpaceOnUse"><stop
         offset="0"
         stop-color="#4194d7"
         id="stop441" /><stop
         offset=".2"
         stop-color="#4194d7"
         id="stop443" /><stop
         offset="1"
         stop-color="#fff"
         id="stop445" /></linearGradient><linearGradient
       id="linear-gradient-8"
       x1="270.972"
       x2="273.453"
       y1="953.318"
       y2="953.318"
       gradientTransform="matrix(70.222269,-12.666615,-12.666615,-70.222269,-6776.414,70529.223)"
       gradientUnits="userSpaceOnUse"><stop
         offset="0"
         stop-color="#4194d7"
         id="stop448" /><stop
         offset=".333"
         stop-color="#4496d8"
         id="stop450" /><stop
         offset="1"
         stop-color="#fff"
         id="stop452" /></linearGradient><clipPath
       id="clip-path"><path
         d="M174.401 302.089l-68.654-30.253-3.822 43.201 75.497 23.987-3.021-36.935z"
         class="cls-1"
         id="path455" /></clipPath><clipPath
       id="clip-path-2"><path
         d="M119.188 134.954h38.554v32.892h-9.15v-14.05a10.128 10.128 0 1 0-20.255 0v14.05h-9.15zm-7.703 72.04l57.2 25.207-3.944-48.237h7.486v-16.118h-5.554v-32.892h5.554v-9.455l-30.85-30.187v-2.124a2.912 2.912 0 0 0-5.823 0v2.124L104.703 125.5v9.455h5.555v32.892h-5.555v16.118h8.82z"
         class="cls-1"
         id="path458" /></clipPath><clipPath
       id="clip-path-3"><path
         d="M108.135 244.851l63.888 28.156-.959-11.725-61.968-27.305-.961 10.874z"
         class="cls-1"
         id="path461" /></clipPath><clipPath
       id="clip-path-4"><path
         d="M106.46 263.78l67.23 29.629-.956-11.721-65.311-28.781-.963 10.873z"
         class="cls-1"
         id="path464" /></clipPath><clipPath
       id="clip-path-5"><path
         d="M110.773 215.048l-.963 10.877 60.544 26.677-.958-11.721-58.623-25.833z"
         class="cls-1"
         id="path467" /></clipPath><clipPath
       id="clip-path-6"><path
         d="M313.126 67.16a175.312 175.312 0 0 0-29.75-28.133 179.67 179.67 0 0 0-4.788-3.42L256.03 59.068 173.69 144.7l113.38-58.677 29.07-15.042c-1.006-1.274-1.976-2.577-3.014-3.821z"
         class="cls-1"
         id="path470" /></clipPath><clipPath
       id="clip-path-7"><path
         d="M353.588 177.179c-.017-1.99-.136-3.952-.219-5.925l-32.214-2.312-147.465-10.584 144.67 50.191 30.41 10.551c.09-.36.192-.714.278-1.078a173.652 173.652 0 0 0 4.572-39.47c0-.46-.03-.913-.033-1.373z"
         class="cls-1"
         id="path473" /></clipPath><clipPath
       id="clip-path-8"><path
         d="M348.84 138.18a172.551 172.551 0 0 0-13.83-37.7l-30.939 9.94-128.148 41.182 141.98-4.834 32.502-1.107c-.483-2.506-.976-5.01-1.564-7.482z"
         class="cls-1"
         id="path476" /></clipPath><style
       id="style479">.cls-1{fill:none}.cls-3{fill:#696566}</style><linearGradient
       inkscape:collect="always"
       xlink:href="#linear-gradient"
       id="linearGradient594"
       gradientUnits="userSpaceOnUse"
       gradientTransform="matrix(30.42866,0,0,-30.42866,-7955.215,29272.28)"
       x1="264.788"
       y1="951.959"
       x2="267.269"
       y2="951.959" /></defs><sodipodi:namedview
     id="namedview171"
     pagecolor="#ffffff"
     bordercolor="#666666"
     borderopacity="1.0"
     inkscape:pageshadow="2"
     inkscape:pageopacity="0.0"
     inkscape:pagecheckerboard="0"
     showgrid="false"
     inkscape:zoom="2.3666667"
     inkscape:cx="149.78873"
     inkscape:cy="150"
     inkscape:window-width="1312"
     inkscape:window-height="936"
     inkscape:window-x="0"
     inkscape:window-y="25"
     inkscape:window-maximized="0"
     inkscape:current-layer="Calque_1" /><style
     id="style108">.st1{fill:#f6d2a2}.st2{fill:#c6b198}.st3{fill:#37abc8}.st4{fill:none}.st5{fill:#077e91}.st6{fill:#fff}.st7{fill:#ef9325}.st8{fill:#e5e5e5}.st9{fill:#d2e261}.st10{fill:#9b9b9b}.st11{fill:#960000}.st12{fill:#595959}</style><g
     id="g3158"
     transform="translate(-21.04 -84.875) scale(.63926)"><g
       id="g3184" /><g
       id="g3194" /><g
       id="g3200" /><g
       id="g3208" /></g><g
     id="g3212"
     transform="translate(-21.04 -84.875) scale(.63926)" /><g
     id="g3220"
     transform="translate(-21.04 -84.875) scale(.63926)" /><g
     id="g3228"
     transform="translate(-21.04 -84.875) scale(.63926)" /><g
     id="g3238"
     transform="translate(-21.04 -84.875) scale(.63926)" /><g
     id="g3248"
     transform="translate(-21.04 -84.875) scale(.63926)"><g
       id="g3250" /><g
       id="g3256" /></g><g
     id="g3268"
     transform="translate(-21.04 -84.875) scale(.63926)" /><g
     id="g592"
     transform="matrix(0.49791611,0,0,0.49791611,60.146701,32.801599)"><path
       id="path14"
       fill="#ffffff"
       d="M 30.888,178.552 A 148.868,148.868 0 1 1 179.757,327.42 148.868,148.868 0 0 1 30.888,178.552" /><path
       id="path16"
       d="m 4.566,384.183 a 3.3,3.3 0 0 1 3.224,-3.307 3.316,3.316 0 0 1 3.305,3.307 v 22.814 H 44.49 v -22.814 a 3.265,3.265 0 1 1 6.528,0 v 52.074 a 3.265,3.265 0 1 1 -6.528,0 V 413.113 H 11.095 v 23.144 a 3.316,3.316 0 0 1 -3.305,3.307 3.3,3.3 0 0 1 -3.224,-3.307 v -52.074"
       class="cls-3" /><path
       id="path18"
       d="m 102.188,417.907 -13.307,-29.59 -13.308,29.59 z m -40.914,16.946 23.474,-51.33 a 4.266,4.266 0 0 1 4.133,-2.894 h 0.331 a 4.165,4.165 0 0 1 4.05,2.893 l 23.473,51.246 a 4.404,4.404 0 0 1 0.414,1.654 3.14,3.14 0 0 1 -3.14,3.142 3.564,3.564 0 0 1 -3.224,-2.398 l -6.033,-13.308 H 73.01 l -6.034,13.474 a 3.273,3.273 0 0 1 -3.143,2.232 2.964,2.964 0 0 1 -2.975,-2.977 3.766,3.766 0 0 1 0.415,-1.734"
       class="cls-3" /><path
       id="path20"
       d="m 151.374,410.798 c 8.68,0 14.878,-4.462 14.878,-11.902 v -0.165 c 0,-7.108 -5.454,-11.408 -14.795,-11.408 h -17.855 v 23.475 z m -24.3,-26.201 a 3.3,3.3 0 0 1 3.223,-3.307 h 21.654 c 7.11,0 12.813,2.15 16.45,5.786 a 15.98,15.98 0 0 1 4.464,11.407 v 0.165 c 0,9.506 -6.447,15.044 -15.457,16.78 l 14.382,18.514 a 3.556,3.556 0 0 1 1.075,2.398 3.415,3.415 0 0 1 -3.308,3.224 3.805,3.805 0 0 1 -3.057,-1.736 l -16.284,-21.16 h -16.614 v 19.589 a 3.265,3.265 0 1 1 -6.529,0 v -51.66"
       class="cls-3" /><path
       id="path22"
       d="m 210.147,433.28 c 8.762,0 14.217,-3.883 14.217,-10.33 v -0.166 c 0,-6.282 -5.29,-9.92 -15.374,-9.92 h -18.266 v 20.417 z m -2.315,-26.201 c 7.854,0 13.308,-3.554 13.308,-10.332 v -0.166 c 0,-5.703 -4.545,-9.422 -12.81,-9.422 h -17.606 v 19.92 z m -23.556,-22.482 a 3.3,3.3 0 0 1 3.224,-3.307 h 21.408 c 6.612,0 11.82,1.9 15.126,5.124 a 12.853,12.853 0 0 1 3.72,9.259 v 0.164 c 0,7.523 -4.63,11.408 -9.175,13.39 6.86,2.067 12.398,6.035 12.398,13.97 v 0.165 c 0,9.919 -8.35,15.787 -20.995,15.787 H 187.5 a 3.3,3.3 0 0 1 -3.224,-3.305 v -51.247"
       class="cls-3" /><path
       id="path24"
       d="m 291.072,410.385 v -0.165 c 0,-13.142 -9.588,-23.887 -22.814,-23.887 -13.225,0 -22.648,10.58 -22.648,23.721 v 0.166 c 0,13.142 9.589,23.888 22.813,23.888 13.227,0 22.65,-10.58 22.65,-23.723 z m -52.239,0 v -0.165 c 0,-15.952 11.985,-29.921 29.59,-29.921 17.608,0 29.427,13.803 29.427,29.755 v 0.166 c 0,15.953 -11.986,29.923 -29.592,29.923 -17.606,0 -29.425,-13.805 -29.425,-29.758"
       class="cls-3" /><path
       id="path26"
       d="m 333.398,410.798 c 8.68,0 14.879,-4.462 14.879,-11.902 v -0.165 c 0,-7.108 -5.455,-11.408 -14.796,-11.408 h -17.854 v 23.475 z m -24.3,-26.201 a 3.3,3.3 0 0 1 3.224,-3.307 h 21.654 c 7.11,0 12.813,2.15 16.45,5.786 a 15.98,15.98 0 0 1 4.464,11.407 v 0.165 c 0,9.506 -6.448,15.044 -15.457,16.78 l 14.382,18.514 a 3.556,3.556 0 0 1 1.075,2.398 3.415,3.415 0 0 1 -3.308,3.224 3.805,3.805 0 0 1 -3.057,-1.736 l -16.283,-21.16 h -16.615 v 19.589 a 3.265,3.265 0 1 1 -6.53,0 v -51.66"
       class="cls-3" /><g
       id="g30"
       clip-path="url(#clip-path)"><g
         id="g32"><path
           id="path46"
           fill="url(#linear-gradient)"
           d="m 174.401,302.089 -68.654,-30.253 -3.822,43.201 75.497,23.987 -3.02,-36.935"
           style="fill:url(#linearGradient594)" /></g></g><g
       id="g48"
       clip-path="url(#clip-path-2)"><g
         id="g50"><path
           id="path64"
           fill="url(#linear-gradient-2)"
           d="m 119.188,134.954 h 38.554 v 32.892 h -9.15 v -14.05 a 10.128,10.128 0 1 0 -20.255,0 v 14.05 h -9.15 z m -7.703,72.04 57.2,25.207 -3.944,-48.237 h 7.486 v -16.118 h -5.554 v -32.892 h 5.554 v -9.455 l -30.85,-30.187 v -2.124 a 2.912,2.912 0 0 0 -5.823,0 v 2.124 L 104.703,125.5 v 9.455 h 5.555 v 32.892 h -5.555 v 16.118 h 8.82 l -2.038,23.03"
           style="fill:url(#linear-gradient-2)" /></g></g><g
       id="g66"
       clip-path="url(#clip-path-3)"><g
         id="g68"><path
           id="path82"
           fill="url(#linear-gradient-3)"
           d="m 108.135,244.851 63.888,28.156 -0.96,-11.725 -61.967,-27.305 -0.961,10.874"
           style="fill:url(#linear-gradient-3)" /></g></g><g
       id="g84"
       clip-path="url(#clip-path-4)"><g
         id="g86"><path
           id="path100"
           fill="url(#linear-gradient-4)"
           d="m 106.46,263.78 67.23,29.629 -0.956,-11.72 -65.31,-28.782 -0.964,10.873"
           style="fill:url(#linear-gradient-4)" /></g></g><g
       id="g102"
       clip-path="url(#clip-path-5)"><g
         id="g104"><path
           id="path118"
           fill="url(#linear-gradient-5)"
           d="m 110.773,215.048 -0.963,10.877 60.544,26.677 -0.958,-11.72 -58.623,-25.834"
           style="fill:url(#linear-gradient-5)" /></g></g><path
       id="path120"
       d="m 304.071,110.42 30.938,-9.94 c -0.112,-0.219 -0.205,-0.45 -0.317,-0.665 A 174.408,174.408 0 0 0 316.139,70.981 l -29.068,15.042 a 142.712,142.712 0 0 1 16.726,23.868 c 0.096,0.172 0.178,0.354 0.274,0.53"
       class="cls-3" /><path
       id="path122"
       d="m 321.155,168.942 32.214,2.311 a 172.861,172.861 0 0 0 -2.964,-25.592 l -32.502,1.107 a 140.969,140.969 0 0 1 3.252,22.174"
       class="cls-3" /><path
       id="path124"
       d="m 182.022,320.377 c -78.203,0 -141.828,-63.623 -141.828,-141.825 0,-78.201 63.625,-141.824 141.828,-141.824 a 140.929,140.929 0 0 1 76.273,22.34 L 280.854,35.607 A 172.86,172.86 0 0 0 182.022,4.682 c -95.871,0 -173.867,78 -173.867,173.87 0,95.871 77.996,173.87 173.867,173.87 81.904,0 150.69,-56.956 169.014,-133.322 l -30.412,-10.55 c -13.805,63.838 -70.692,111.827 -138.602,111.827"
       class="cls-3" /><g
       id="g126"
       clip-path="url(#clip-path-6)"><g
         id="g128"><path
           id="path142"
           fill="url(#linear-gradient-6)"
           d="m 313.126,67.16 a 175.312,175.312 0 0 0 -29.75,-28.133 179.67,179.67 0 0 0 -4.788,-3.42 L 256.03,59.068 173.69,144.7 287.07,86.023 316.14,70.981 c -1.006,-1.274 -1.976,-2.577 -3.014,-3.821"
           style="fill:url(#linear-gradient-6)" /></g></g><g
       id="g144"
       clip-path="url(#clip-path-7)"><g
         id="g146"><path
           id="path160"
           fill="url(#linear-gradient-7)"
           d="m 353.588,177.179 c -0.017,-1.99 -0.136,-3.952 -0.219,-5.925 l -32.214,-2.312 -147.465,-10.584 144.67,50.191 30.41,10.551 c 0.09,-0.36 0.192,-0.714 0.278,-1.078 a 173.652,173.652 0 0 0 4.572,-39.47 c 0,-0.46 -0.03,-0.913 -0.033,-1.373"
           style="fill:url(#linear-gradient-7)" /></g></g><g
       id="g162"
       clip-path="url(#clip-path-8)"><g
         id="g164"><path
           id="path178"
           fill="url(#linear-gradient-8)"
           d="m 348.84,138.18 a 172.551,172.551 0 0 0 -13.83,-37.7 l -30.939,9.94 -128.148,41.182 141.98,-4.834 32.502,-1.107 c -0.483,-2.506 -0.976,-5.01 -1.564,-7.482"
           style="fill:url(#linear-gradient-8)" /></g></g></g></svg>
