<?xml version="1.0" encoding="UTF-8" standalone="no"?>
<svg
   version="1.1"
   id="Calque_1"
   x="0"
   y="0"
   viewBox="0 0 300 300"
   style="enable-background:new 0 0 300 300"
   xml:space="preserve"
   sodipodi:docname="rook-ceph.svg"
   inkscape:version="1.1.2 (b8e25be8, 2022-02-05)"
   xmlns:inkscape="http://www.inkscape.org/namespaces/inkscape"
   xmlns:sodipodi="http://sodipodi.sourceforge.net/DTD/sodipodi-0.dtd"
   xmlns="http://www.w3.org/2000/svg"
   xmlns:svg="http://www.w3.org/2000/svg"><defs
     id="defs240" /><sodipodi:namedview
     id="namedview238"
     pagecolor="#ffffff"
     bordercolor="#666666"
     borderopacity="1.0"
     inkscape:pageshadow="2"
     inkscape:pageopacity="0.0"
     inkscape:pagecheckerboard="0"
     showgrid="false"
     inkscape:zoom="2.3733333"
     inkscape:cx="149.78933"
     inkscape:cy="150"
     inkscape:window-width="1312"
     inkscape:window-height="938"
     inkscape:window-x="0"
     inkscape:window-y="25"
     inkscape:window-maximized="0"
     inkscape:current-layer="Calque_1" /><style
     id="style175">.st1{fill:#f6d2a2}.st2{fill:#c6b198}.st3{fill:#37abc8}.st4{fill:none}.st5{fill:#077e91}.st6{fill:#fff}.st7{fill:#ef9325}.st8{fill:#e5e5e5}.st9{fill:#d2e261}.st10{fill:#9b9b9b}.st11{fill:#960000}.st12{fill:#595959}</style><g
     id="g3158"
     transform="translate(-21.04 -84.875) scale(.63926)"><g
       id="g3184" /><g
       id="g3194" /><g
       id="g3200" /><g
       id="g3208" /></g><g
     id="g3212"
     transform="translate(-21.04 -84.875) scale(.63926)" /><g
     id="g3220"
     transform="translate(-21.04 -84.875) scale(.63926)" /><g
     id="g3228"
     transform="translate(-21.04 -84.875) scale(.63926)" /><g
     id="g3238"
     transform="translate(-21.04 -84.875) scale(.63926)" /><g
     id="g3248"
     transform="translate(-21.04 -84.875) scale(.63926)"><g
       id="g3250" /><g
       id="g3256" /></g><g
     id="g3268"
     transform="translate(-21.04 -84.875) scale(.63926)" /><style
     id="style3588">svg {enable-background:new 0 0 322.1 492.6}</style><style
     id="style3590">.st0{fill:#0091bd}</style><g
     id="Layer_1-2"
     transform="matrix(0.2585774,0,0,0.2585774,109.8605,34.191656)"><path
       d="M 318.6,122.9 H 236.5 V 95.5 h 54.6 V 31.6 H 249.4 V 67.9 H 181.9 V 31.6 H 141 V 67.9 H 71.5 V 31.6 H 32.4 v 63.9 h 52.8 v 27.4 H 4.9 V 4.1 H 99 v 36.3 h 14.5 V 4.1 h 95.9 v 36.3 h 12.5 V 4.1 h 96.7 z m -28.2,51.4 v 151 c -0.1,16.1 -13.1,29.1 -29.2,29.2 H 62.1 C 46.1,354.4 33,341.4 33,325.3 v -151 h 257.4 m 27.5,-27.5 H 5.5 v 178.9 c 0.3,31.1 25.5,56.1 56.6,56.2 h 199.1 c 31.2,-0.1 56.6,-25.4 56.6,-56.6 V 146.4 Z"
       class="st0"
       id="path3592" /><path
       d="m 161.7,229.5 c 16.4,0.1 29.6,13.3 29.7,29.7 v 31.6 H 132 v -31.6 c 0.1,-16.4 13.3,-29.6 29.7,-29.7 m 0,-27.4 c -31.6,0 -57.1,25.6 -57.1,57.1 v 58.6 h 114.3 v -58.6 c -0.1,-31.6 -25.6,-57.1 -57.2,-57.1 z"
       class="st0"
       id="path3594" /><path
       fill="#546a79"
       d="M 13.5,487.8 H 4.9 v -75.9 h 36.3 c 15.6,0 25.5,9.3 25.5,23.7 0,14.4 -9.8,19.6 -18.3,21.5 l 19.9,30.6 H 58.1 l -18.3,-29 H 13.5 Z m 0,-37.2 h 26.2 c 8.2,0 18.4,-3.1 18.4,-14.9 0,-9.6 -7.2,-15.6 -18,-15.6 H 13.5 Z M 154,449.9 c 0,21.5 -15.5,38.8 -38.5,38.8 -23,0 -38.5,-17.3 -38.5,-38.8 0,-21.5 15.5,-38.8 38.6,-38.8 23.1,0 38.4,17.3 38.4,38.8 z m -8.6,0 c 0,-17.1 -11.5,-30.5 -30,-30.5 -18.5,0 -29.8,13.4 -29.8,30.5 0,17.1 11.5,30.5 30,30.5 18.5,0 29.8,-13.4 29.8,-30.5 z m 95.3,0 c 0,21.5 -15.5,38.8 -38.5,38.8 -23,0 -38.5,-17.3 -38.5,-38.8 0,-21.5 15.5,-38.8 38.5,-38.8 23,0 38.5,17.3 38.5,38.8 z m -8.6,0 c 0,-17.1 -11.5,-30.5 -30,-30.5 -18.5,0 -30,13.4 -30,30.5 0,17 11.5,30.5 30,30.5 18.5,0 30,-13.4 30,-30.5 z m 51.8,-7.4 34.1,45.3 H 307.2 L 277.5,448.3 261.9,463 v 24.9 h -8.6 v -76 h 8.6 v 39.6 l 42.2,-39.6 h 12.1 z"
       id="path3596" /></g><g
     id="g3829"
     transform="matrix(1.6079391,0,0,1.6079391,48.604047,162.74357)"><path
       d="m 41.805,44.616 c -1.6,-0.856 -2.528,-1.82 -2.732,-2.87 -0.196,-1.015 0.256,-2.143 1.385,-3.45 2.697,-3.094 4.182,-7.07 4.182,-11.193 A 17.08,17.08 0 0 0 27.583,10.046 l -0.075,0.001 -0.077,-0.001 a 17.08,17.08 0 0 0 -17.056,17.057 17.03,17.03 0 0 0 4.183,11.194 c 1.137,1.316 1.58,2.4 1.4,3.404 -0.196,1.047 -1.117,2.025 -2.74,2.912 -2.5,-2.075 -4.7,-4.846 -6.048,-7.626 a 22.54,22.54 0 0 1 -1.685,-4.735 22.62,22.62 0 0 1 -0.59,-5.15 22.42,22.42 0 0 1 1.771,-8.778 c 1.137,-2.684 2.762,-5.096 4.833,-7.165 a 22.51,22.51 0 0 1 7.166,-4.832 22.41,22.41 0 0 1 8.777,-1.772 h 0.153 a 22.42,22.42 0 0 1 8.778,1.772 c 2.684,1.136 5.096,2.76 7.166,4.832 a 22.49,22.49 0 0 1 4.832,7.165 22.42,22.42 0 0 1 1.773,8.778 c 0,1.738 -0.2,3.47 -0.6,5.15 a 22.43,22.43 0 0 1 -1.686,4.735 c -1.358,2.78 -3.557,5.553 -6.05,7.628 m -8.333,4.22 c -0.262,-0.165 -1.157,-0.83 -2.03,-2.04 -0.837,-1.155 -1.822,-3.072 -1.77,-5.638 a 12.46,12.46 0 0 1 0.922,-4.47 12.7,12.7 0 0 1 2.454,-3.833 l 0.006,-0.01 0.232,-0.27 c 0.397,-0.46 0.808,-0.937 1.135,-1.493 0.404,-0.684 0.697,-1.404 0.872,-2.14 a 8.05,8.05 0 0 0 0.044,-3.486 c -0.222,-1.052 -0.67,-2.07 -1.294,-2.95 a 8.04,8.04 0 0 0 -2.28,-2.147 7.94,7.94 0 0 0 -3.068,-1.117 8,8 0 0 0 -1.123,-0.08 h -0.162 a 7.91,7.91 0 0 0 -1.121,0.079 7.95,7.95 0 0 0 -3.068,1.117 8.04,8.04 0 0 0 -2.281,2.147 8.01,8.01 0 0 0 -1.293,2.95 8.03,8.03 0 0 0 0.045,3.486 c 0.174,0.736 0.468,1.455 0.87,2.14 0.33,0.557 0.74,1.032 1.136,1.493 l 0.233,0.27 0.005,0.01 c 1.054,1.135 1.88,2.425 2.455,3.833 a 12.43,12.43 0 0 1 0.921,4.469 c 0.052,2.566 -0.933,4.483 -1.77,5.638 -0.874,1.2 -1.77,1.875 -2.03,2.04 L 20.208,48.44 c -1.296,-0.434 -2.557,-1 -3.757,-1.656 2.06,-1.1 3.37,-3.274 3.37,-5.634 0,-1.56 -0.607,-3.06 -1.803,-4.45 C 18,36.68 17.982,36.662 17.968,36.648 L 17.61,36.256 16.65,35.131 a 13.46,13.46 0 0 1 -2.3,-4.916 13.55,13.55 0 0 1 -0.074,-5.89 c 0.375,-1.782 1.133,-3.5 2.2,-4.998 1.022,-1.44 2.354,-2.693 3.85,-3.626 a 13.48,13.48 0 0 1 5.2,-1.894 13.21,13.21 0 0 1 1.892,-0.133 h 0.17 a 13.33,13.33 0 0 1 1.893,0.133 13.48,13.48 0 0 1 5.2,1.894 13.58,13.58 0 0 1 3.852,3.626 c 1.056,1.487 1.814,3.216 2.2,4.998 a 13.64,13.64 0 0 1 -0.075,5.9 13.46,13.46 0 0 1 -2.302,4.916 c -0.3,0.4 -0.616,0.747 -0.96,1.125 l -0.347,0.383 c -0.025,0.023 -0.044,0.04 -0.06,0.064 -1.213,1.45 -1.803,2.907 -1.803,4.447 a 6.41,6.41 0 0 0 3.374,5.634 22.51,22.51 0 0 1 -3.757,1.656 l -1.3,0.393 M 27.507,31.77 a 4.46,4.46 0 0 1 -4.452,-4.452 4.46,4.46 0 0 1 4.452,-4.452 4.46,4.46 0 0 1 4.451,4.452 4.46,4.46 0 0 1 -4.451,4.452"
       fill="#f0424d"
       id="path3817" /><path
       d="m 69.534,29.575 c 0,3.13 -0.28,3.995 -1.034,4.75 -0.447,0.447 -1.146,0.754 -2.46,0.754 h -4.6 c -1.48,0 -2.374,-0.252 -3,-0.865 -0.977,-0.978 -1.256,-2.152 -1.256,-6.677 0,-4.525 0.28,-5.7 1.256,-6.677 0.616,-0.615 1.5,-0.865 3,-0.865 h 4.582 c 1.368,0 1.982,0.278 2.458,0.754 0.726,0.726 1.006,1.732 1.006,4.552 h -2.82 c -0.057,-1.955 -0.168,-2.3 -0.336,-2.458 -0.168,-0.158 -0.4,-0.25 -1.033,-0.25 h -3.492 c -0.866,0 -1.1,0.084 -1.284,0.28 -0.28,0.28 -0.42,0.8 -0.42,4.665 0,3.865 0.14,4.386 0.42,4.665 0.195,0.196 0.42,0.28 1.284,0.28 h 3.52 c 0.615,0 0.896,-0.056 1.1,-0.25 0.204,-0.194 0.308,-0.755 0.308,-2.654 h 2.822 m 4.895,-3.412 h 6.872 c 0,-2.542 -0.168,-3.1 -0.418,-3.352 -0.17,-0.167 -0.42,-0.28 -1.285,-0.28 h -3.465 c -0.866,0 -1.1,0.084 -1.313,0.307 -0.252,0.252 -0.362,0.754 -0.4,3.324 z m 0,2.32 c 0.03,2.96 0.195,3.547 0.42,3.77 0.225,0.223 0.42,0.28 1.284,0.28 h 3.9 c 0.643,0 0.84,-0.112 1.007,-0.28 0.194,-0.196 0.25,-0.53 0.307,-1.872 h 2.82 c -0.056,2.346 -0.28,3.185 -1.034,3.94 -0.474,0.475 -1.117,0.754 -2.458,0.754 h -4.9 c -1.48,0 -2.375,-0.252 -3,-0.865 -0.98,-0.978 -1.256,-2.152 -1.256,-6.677 0,-4.525 0.278,-5.7 1.256,-6.677 0.615,-0.615 1.5,-0.865 3,-0.865 h 4.134 c 1.482,0 2.43,0.278 3,0.837 0.977,0.978 1.256,2.152 1.256,6.566 v 0.754 c 0,0.222 -0.083,0.335 -0.336,0.335 h -9.42 m 21.143,3.66 c -0.25,0.25 -0.616,0.363 -1.536,0.363 h -2.18 c -0.894,0 -1.67,-0.252 -2.738,-0.795 L 88.924,31.617 V 23.4 c 1.118,-0.558 1.9,-0.838 2.822,-0.838 h 2.3 c 0.92,0 1.285,0.112 1.536,0.363 0.42,0.42 0.53,1.228 0.53,4.6 0,3.372 -0.112,4.2 -0.53,4.6 z m -0.84,-12.182 h -2.038 c -1.258,0 -1.872,0.28 -3.772,1.845 V 19.995 H 86.02 v 18.42 h 2.905 V 33.3 c 1.9,1.536 2.514,1.815 3.772,1.815 h 2.038 c 1.622,0 2.432,-0.28 3.074,-0.92 0.8,-0.8 1.2,-1.956 1.2,-6.65 0,-4.694 -0.392,-5.84 -1.2,-6.65 -0.642,-0.642 -1.452,-0.923 -3.074,-0.923 m 18.245,0.868 c -0.56,-0.56 -1.285,-0.867 -2.598,-0.867 h -2.374 c -1.257,0 -1.872,0.28 -3.772,1.845 v -5.75 a 10.48,10.48 0 0 0 -2.884,-1.081 c -0.007,0 -0.013,0.005 -0.02,0.007 V 35.08 h 2.905 V 23.4 l 0.603,-0.285 c 0.815,-0.366 1.472,-0.552 2.22,-0.552 h 1.956 c 0.978,0 1.257,0.112 1.564,0.42 0.28,0.28 0.4,0.725 0.4,1.452 V 35.08 h 2.907 V 24.24 c 0,-2.096 -0.308,-2.822 -0.895,-3.408"
       fill="#333c46"
       id="path3819" /></g></svg>
