<?xml version="1.0" encoding="UTF-8" standalone="no"?>
<svg
   version="1.1"
   id="Calque_1"
   x="0"
   y="0"
   viewBox="0 0 300 300"
   style="enable-background:new 0 0 300 300"
   xml:space="preserve"
   sodipodi:docname="rook.svg"
   inkscape:version="1.1.2 (b8e25be8, 2022-02-05)"
   xmlns:inkscape="http://www.inkscape.org/namespaces/inkscape"
   xmlns:sodipodi="http://sodipodi.sourceforge.net/DTD/sodipodi-0.dtd"
   xmlns="http://www.w3.org/2000/svg"
   xmlns:svg="http://www.w3.org/2000/svg"><defs
     id="defs240" /><sodipodi:namedview
     id="namedview238"
     pagecolor="#ffffff"
     bordercolor="#666666"
     borderopacity="1.0"
     inkscape:pageshadow="2"
     inkscape:pageopacity="0.0"
     inkscape:pagecheckerboard="0"
     showgrid="false"
     inkscape:zoom="2.3733333"
     inkscape:cx="149.78933"
     inkscape:cy="150"
     inkscape:window-width="1312"
     inkscape:window-height="938"
     inkscape:window-x="0"
     inkscape:window-y="25"
     inkscape:window-maximized="0"
     inkscape:current-layer="Calque_1" /><style
     id="style175">.st1{fill:#f6d2a2}.st2{fill:#c6b198}.st3{fill:#37abc8}.st4{fill:none}.st5{fill:#077e91}.st6{fill:#fff}.st7{fill:#ef9325}.st8{fill:#e5e5e5}.st9{fill:#d2e261}.st10{fill:#9b9b9b}.st11{fill:#960000}.st12{fill:#595959}</style><g
     id="g3158"
     transform="translate(-21.04 -84.875) scale(.63926)"><g
       id="g3184" /><g
       id="g3194" /><g
       id="g3200" /><g
       id="g3208" /></g><g
     id="g3212"
     transform="translate(-21.04 -84.875) scale(.63926)" /><g
     id="g3220"
     transform="translate(-21.04 -84.875) scale(.63926)" /><g
     id="g3228"
     transform="translate(-21.04 -84.875) scale(.63926)" /><g
     id="g3238"
     transform="translate(-21.04 -84.875) scale(.63926)" /><g
     id="g3248"
     transform="translate(-21.04 -84.875) scale(.63926)"><g
       id="g3250" /><g
       id="g3256" /></g><g
     id="g3268"
     transform="translate(-21.04 -84.875) scale(.63926)" /><style
     id="style3588">svg {enable-background:new 0 0 322.1 492.6}</style><style
     id="style3590">.st0{fill:#0091bd}</style><g
     id="Layer_1-2"
     transform="matrix(0.4143836,0,0,0.4143836,84.658846,52.009842)"><path
       d="M 318.6,122.9 H 236.5 V 95.5 h 54.6 V 31.6 H 249.4 V 67.9 H 181.9 V 31.6 H 141 V 67.9 H 71.5 V 31.6 H 32.4 v 63.9 h 52.8 v 27.4 H 4.9 V 4.1 H 99 v 36.3 h 14.5 V 4.1 h 95.9 v 36.3 h 12.5 V 4.1 h 96.7 z m -28.2,51.4 v 151 c -0.1,16.1 -13.1,29.1 -29.2,29.2 H 62.1 C 46.1,354.4 33,341.4 33,325.3 v -151 h 257.4 m 27.5,-27.5 H 5.5 v 178.9 c 0.3,31.1 25.5,56.1 56.6,56.2 h 199.1 c 31.2,-0.1 56.6,-25.4 56.6,-56.6 V 146.4 Z"
       class="st0"
       id="path3592" /><path
       d="m 161.7,229.5 c 16.4,0.1 29.6,13.3 29.7,29.7 v 31.6 H 132 v -31.6 c 0.1,-16.4 13.3,-29.6 29.7,-29.7 m 0,-27.4 c -31.6,0 -57.1,25.6 -57.1,57.1 v 58.6 h 114.3 v -58.6 c -0.1,-31.6 -25.6,-57.1 -57.2,-57.1 z"
       class="st0"
       id="path3594" /><path
       fill="#546a79"
       d="M 13.5,487.8 H 4.9 v -75.9 h 36.3 c 15.6,0 25.5,9.3 25.5,23.7 0,14.4 -9.8,19.6 -18.3,21.5 l 19.9,30.6 H 58.1 l -18.3,-29 H 13.5 Z m 0,-37.2 h 26.2 c 8.2,0 18.4,-3.1 18.4,-14.9 0,-9.6 -7.2,-15.6 -18,-15.6 H 13.5 Z M 154,449.9 c 0,21.5 -15.5,38.8 -38.5,38.8 -23,0 -38.5,-17.3 -38.5,-38.8 0,-21.5 15.5,-38.8 38.6,-38.8 23.1,0 38.4,17.3 38.4,38.8 z m -8.6,0 c 0,-17.1 -11.5,-30.5 -30,-30.5 -18.5,0 -29.8,13.4 -29.8,30.5 0,17.1 11.5,30.5 30,30.5 18.5,0 29.8,-13.4 29.8,-30.5 z m 95.3,0 c 0,21.5 -15.5,38.8 -38.5,38.8 -23,0 -38.5,-17.3 -38.5,-38.8 0,-21.5 15.5,-38.8 38.5,-38.8 23,0 38.5,17.3 38.5,38.8 z m -8.6,0 c 0,-17.1 -11.5,-30.5 -30,-30.5 -18.5,0 -30,13.4 -30,30.5 0,17 11.5,30.5 30,30.5 18.5,0 30,-13.4 30,-30.5 z m 51.8,-7.4 34.1,45.3 H 307.2 L 277.5,448.3 261.9,463 v 24.9 h -8.6 v -76 h 8.6 v 39.6 l 42.2,-39.6 h 12.1 z"
       id="path3596" /></g></svg>
